<?xml version="1.0" standalone="no"?>
<!DOCTYPE svg PUBLIC "-//W3C//DTD SVG 1.1//EN" "http://www.w3.org/Graphics/SVG/1.1/DTD/svg11.dtd" >
<svg xmlns="http://www.w3.org/2000/svg">
<metadata></metadata>
<defs>
<font id="vagroundedregular" horiz-adv-x="1138" >
<font-face units-per-em="2048" ascent="1638" descent="-410" />
<missing-glyph horiz-adv-x="569" />
<glyph horiz-adv-x="2048" />
<glyph horiz-adv-x="2048" />
<glyph unicode="&#xd;" horiz-adv-x="2048" />
<glyph unicode=" "  horiz-adv-x="569" />
<glyph unicode="&#x09;" horiz-adv-x="569" />
<glyph unicode="&#xa0;" horiz-adv-x="569" />
<glyph unicode="!" horiz-adv-x="532" d="M88 145q0 72 53 125.5t125 53.5t125 -53.5t53 -125.5q0 -73 -53 -125.5t-125 -52.5t-125 52.5t-53 125.5zM106 592v719q0 75 43 127.5t117 52.5t117 -52.5t43 -127.5v-719q0 -75 -43 -127.5t-117 -52.5t-117 52.5t-43 127.5z" />
<glyph unicode="&#x22;" horiz-adv-x="985" d="M160 981v346q0 64 37 103.5t98 39.5t98 -39.5t37 -103.5v-346q0 -64 -37 -103.5t-98 -39.5t-98 39.5t-37 103.5zM555 981v346q0 64 37 103.5t98 39.5t98 -39.5t37 -103.5v-346q0 -64 -37 -103.5t-98 -39.5t-98 39.5t-37 103.5z" />
<glyph unicode="#" horiz-adv-x="1228" d="M96 510q0 40 24.5 68t74.5 28h104l33 244h-78q-50 0 -74 28.5t-24 69.5t24 70t74 29h108l44 317q7 50 32 78t82 28q39 0 65.5 -23.5t26.5 -60.5q0 -16 -8 -71l-37 -268h185l43 317q7 50 32 78t82 28q39 0 65.5 -23.5t26.5 -60.5q0 -16 -8 -71l-37 -268h78q50 0 74.5 -29 t24.5 -70q0 -40 -24.5 -69t-74.5 -29h-104l-33 -244h78q50 0 74 -28t24 -68q0 -42 -24 -71t-74 -29h-109l-43 -316q-7 -50 -32 -78t-82 -28q-39 0 -66 23.5t-27 60.5q0 10 9 71l37 267h-185l-43 -316q-7 -50 -32.5 -78t-82.5 -28q-39 0 -65.5 23.5t-26.5 60.5q0 10 9 71 l36 267h-77q-50 0 -74.5 28.5t-24.5 71.5zM506 606h186l33 244h-186z" />
<glyph unicode="$" horiz-adv-x="1290" d="M121 205q0 66 43 118t104 52q28 0 78 -22t113.5 -44t124.5 -22v317q-250 73 -353.5 171.5t-103.5 244.5q0 198 131.5 325.5t325.5 145.5v94q0 62 61 62q34 0 48 -15.5t14 -46.5v-94q44 -1 88 -7t95 -21.5t89.5 -38.5t64 -62t25.5 -88q0 -61 -38 -107.5t-99 -46.5 q-37 0 -109 38t-116 38v-289q78 -22 138.5 -45.5t124 -62t105 -84.5t68 -114t26.5 -150q0 -92 -29 -171t-76 -134t-108.5 -95t-124 -60t-124.5 -24v-90q0 -61 -62 -61q-34 0 -47.5 15t-13.5 46v90q-35 2 -68.5 5.5t-81.5 11.5t-89 19t-83.5 30t-72.5 42t-49 56.5t-19 73.5z M471 1061q0 -46 32 -76.5t81 -42.5v254q-50 -11 -81.5 -46.5t-31.5 -88.5zM707 287q51 0 84.5 42t33.5 97q0 61 -29 93.5t-89 51.5v-284z" />
<glyph unicode="%" horiz-adv-x="1402" d="M35 1161q0 135 92.5 232.5t226.5 97.5q133 0 226.5 -98t93.5 -232t-93.5 -232t-226.5 -98q-137 0 -228 97.5t-91 232.5zM215 82q0 13 3.5 28t7 25.5t12.5 28t13 24t15.5 25t12.5 20.5l661 1149q31 55 59 82t68 27q52 0 86.5 -34t34.5 -81q0 -13 -3.5 -28t-7 -25.5 t-12.5 -28t-13 -24t-15.5 -25t-12.5 -20.5l-661 -1149q-31 -55 -59 -82t-68 -27q-52 0 -86.5 34t-34.5 81zM268 1161q0 -40 23.5 -68t62.5 -28t62.5 28t23.5 68t-23.5 68t-62.5 28t-62.5 -28t-23.5 -68zM729 297q0 135 93 232.5t227 97.5q133 0 226 -98t93 -232t-93 -232 t-226 -98q-137 0 -228.5 97.5t-91.5 232.5zM963 297q0 -40 23.5 -68t62.5 -28t62.5 28t23.5 68t-23.5 68t-62.5 28t-62.5 -28t-23.5 -68z" />
<glyph unicode="&#x26;" horiz-adv-x="1441" d="M41 401q0 82 24.5 149.5t72 120t102.5 92t131 77.5q-35 40 -54.5 65t-41.5 61.5t-32 74t-10 81.5q0 160 119 256.5t297 96.5q85 0 159.5 -19.5t136.5 -59.5t98 -110t36 -162q0 -114 -69 -206t-181 -154l207 -240l80 99q22 27 32 38.5t29.5 29.5t38 24.5t39.5 5.5 q53 0 99.5 -43t46.5 -96q0 -40 -27.5 -80.5t-85.5 -100.5l-74 -75l62 -70q26 -29 37 -42t23 -37t12 -46q0 -62 -48.5 -102.5t-111.5 -40.5q-42 -1 -67 15.5t-64 62.5l-60 67q-107 -90 -220 -128t-261 -38q-96 0 -182 30.5t-151.5 85.5t-103.5 137.5t-38 180.5zM360 414 q0 -82 55.5 -135.5t141.5 -53.5q136 0 262 107l-274 305q-95 -57 -140 -108.5t-45 -114.5zM528 1128q0 -46 26 -86t95 -98q160 73 160 172q0 64 -41 100.5t-106 36.5q-53 0 -93.5 -35t-40.5 -90z" />
<glyph unicode="'" horiz-adv-x="530" d="M131 981v346q0 64 37 103.5t98 39.5t98 -39.5t37 -103.5v-346q0 -64 -37 -103.5t-98 -39.5t-98 39.5t-37 103.5z" />
<glyph unicode="(" horiz-adv-x="530" d="M80 573q0 216 36 411.5t93 334.5q38 91 71.5 131.5t92.5 40.5q62 0 101.5 -35t39.5 -94q0 -14 -24 -88t-52 -168t-52 -242t-24 -291t24 -290.5t52 -241.5t52 -168t24 -88q0 -59 -39.5 -94t-101.5 -35q-59 0 -92.5 40.5t-71.5 131.5q-57 139 -93 334t-36 411z" />
<glyph unicode=")" horiz-adv-x="530" d="M16 -215q0 14 24 88t52 168t52 241.5t24 290.5t-24 291t-52 242t-52 168t-24 88q0 59 39.5 94t102.5 35q59 0 92.5 -40.5t71.5 -131.5q57 -139 93 -334.5t36 -411.5t-36 -411t-93 -334q-38 -91 -71.5 -131.5t-92.5 -40.5q-63 0 -102.5 35t-39.5 94z" />
<glyph unicode="*" horiz-adv-x="796" d="M43 954q0 22 10.5 39.5t31 30t39.5 21t46.5 19t42.5 17.5q-15 7 -42.5 17.5t-46.5 19t-39.5 21t-31 30t-10.5 39.5q0 48 30 84.5t77 36.5q17 0 37 -8.5t33.5 -17t42.5 -29.5t42 -29q-2 18 -10 64.5t-8 64.5q0 49 31.5 72.5t78.5 23.5t79 -23.5t32 -72.5q0 -18 -8.5 -64 t-10.5 -65q12 8 40.5 29t41 29.5t33.5 17t39 8.5q46 0 78.5 -37t32.5 -84q0 -22 -10.5 -39.5t-31 -30t-40 -20.5t-47.5 -19t-43 -18q15 -7 43 -18t47.5 -19t40 -20.5t31 -30t10.5 -39.5q0 -47 -32.5 -83.5t-78.5 -36.5q-18 0 -39 8.5t-33.5 17t-41 29.5t-40.5 29 q2 -19 10.5 -65.5t8.5 -64.5q0 -49 -32 -72.5t-79 -23.5t-78.5 23.5t-31.5 72.5q0 18 8 65t10 65q-13 -8 -42 -29t-42.5 -29.5t-33.5 -17t-37 -8.5q-48 0 -77.5 36t-29.5 84z" />
<glyph unicode="+" horiz-adv-x="1228" d="M35 580q0 64 39 99.5t104 35.5h301v301q0 65 35.5 104t99.5 39q65 0 100.5 -39t35.5 -104v-301h301q65 0 104 -35.5t39 -99.5t-39 -100t-104 -36h-301v-301q0 -65 -35.5 -104t-100.5 -39q-64 0 -99.5 39t-35.5 104v301h-301q-63 0 -103 39.5t-40 96.5z" />
<glyph unicode="," horiz-adv-x="569" d="M-37 -170q0 39 31 98l168 301q54 95 145 95q68 0 112 -39t44 -101q0 -39 -31 -98l-168 -301q-53 -94 -145 -94q-68 0 -112 38.5t-44 100.5z" />
<glyph unicode="-" horiz-adv-x="872" d="M59 571q0 62 36.5 99t99.5 37h483q63 0 99 -37t36 -99t-36 -98.5t-99 -36.5h-483q-63 0 -99.5 36.5t-36.5 98.5z" />
<glyph unicode="." horiz-adv-x="569" d="M106 145q0 72 53.5 125.5t125.5 53.5t125 -53.5t53 -125.5q0 -73 -53 -125.5t-125 -52.5t-125.5 52.5t-53.5 125.5z" />
<glyph unicode="/" horiz-adv-x="948" d="M23 78q0 48 77 194l551 1051q22 41 34.5 62.5t33.5 50.5t43.5 42t48.5 13q53 0 84 -29.5t31 -81.5q0 -46 -78 -194l-551 -1051q-22 -41 -34.5 -62.5t-33.5 -50.5t-43.5 -42t-48.5 -13q-53 0 -83.5 29.5t-30.5 81.5z" />
<glyph unicode="0" horiz-adv-x="1290" d="M35 729q0 117 22.5 226.5t71.5 207t119.5 170.5t172.5 115.5t224 42.5t224 -42.5t172.5 -115.5t119.5 -170.5t71.5 -207t22.5 -226.5t-22.5 -226.5t-71.5 -207t-119.5 -170.5t-172.5 -115.5t-224 -42.5t-224 42.5t-172.5 115.5t-119.5 170.5t-71.5 207t-22.5 226.5z M379 729q0 -59 7.5 -116.5t27 -117.5t48.5 -105t76.5 -74t106.5 -29t106.5 29t76.5 74t48.5 105t27 117.5t7.5 116.5t-7.5 116.5t-27 117.5t-48.5 105t-76.5 74t-106.5 29t-106.5 -29t-76.5 -74t-48.5 -105t-27 -117.5t-7.5 -116.5z" />
<glyph unicode="1" horiz-adv-x="681" d="M-8 1305q0 62 40.5 107.5t112.5 45.5h271q32 0 58.5 -7t52.5 -24t40.5 -51.5t14.5 -83.5v-1128q0 -85 -45.5 -130.5t-120.5 -45.5t-120.5 45.5t-45.5 130.5v987h-105q-72 0 -112.5 46t-40.5 108z" />
<glyph unicode="2" horiz-adv-x="1024" d="M0 145q0 43 32 97.5t67.5 93t87.5 90t65 66.5q6 6 55.5 61.5t80 90.5t80 98t79.5 109t53 97t23 86q0 137 -127 137q-60 0 -96 -32t-51.5 -77.5t-30.5 -90.5t-49 -77t-91 -32q-74 0 -116 48.5t-42 111.5q0 93 37.5 178.5t102 149.5t157.5 102.5t199 38.5q127 0 232 -54 t168 -155.5t63 -232.5q0 -70 -23.5 -142.5t-58.5 -131.5t-88 -127t-99.5 -117.5t-105.5 -114.5t-94 -109h348q72 0 113 -45.5t41 -107.5t-41 -108t-113 -46h-670q-83 0 -135.5 40.5t-52.5 104.5z" />
<glyph unicode="3" horiz-adv-x="1062" d="M0 365q0 60 49 105.5t105 45.5q41 0 72.5 -17t50 -42.5t40.5 -55t44 -55t62.5 -42.5t94.5 -17q71 0 118.5 51t47.5 123q0 156 -207 160q-58 2 -99.5 40.5t-41.5 114.5q0 66 37 97t137 55q125 26 125 135q0 53 -36 80.5t-89 27.5q-46 0 -83 -18t-62 -43.5t-49.5 -51 t-58 -43.5t-75.5 -18q-59 0 -97 47.5t-38 104.5q0 74 44 140t112.5 109t148.5 68t154 25q123 0 224 -46.5t162.5 -138.5t61.5 -214q0 -175 -163 -297q115 -45 176 -143.5t61 -227.5q0 -130 -68 -235t-185 -163.5t-259 -58.5q-109 0 -206.5 34.5t-164.5 90.5t-106 127.5 t-39 145.5z" />
<glyph unicode="4" horiz-adv-x="1251" d="M-18 438q0 69 63 162l487 754q42 66 97.5 91t138.5 25q113 0 179.5 -69t66.5 -180v-619h69q79 0 123.5 -36.5t44.5 -110.5t-44.5 -111t-123.5 -37h-69v-135q0 -89 -42.5 -136.5t-117.5 -47.5t-117.5 46.5t-42.5 133.5v139h-547q-85 0 -125 40.5t-40 90.5zM387 602h307 v522h-4z" />
<glyph unicode="5" horiz-adv-x="1024" d="M4 240q0 72 41 119t100 47q38 0 78 -18.5t70.5 -41t78 -41t97.5 -18.5q90 0 142.5 62t52.5 177q0 79 -44 137t-120 58q-56 0 -95.5 -18.5t-74.5 -37t-80 -18.5q-61 0 -97 32.5t-36 88.5q0 64 10 154l51 399q6 45 21.5 74t41.5 42t50.5 17t62.5 4h500q72 0 113 -45.5 t41 -107.5t-41 -108t-113 -46h-395l-23 -180q75 20 154 20q137 0 236 -67.5t146.5 -175.5t47.5 -242q0 -111 -41.5 -211t-113 -172t-172 -114t-214.5 -42q-108 0 -216.5 34.5t-183.5 99t-75 139.5z" />
<glyph unicode="6" horiz-adv-x="1101" d="M20 465q0 320 289 680q125 155 192 227t105.5 95.5t81.5 23.5q39 0 71.5 -17t50.5 -42.5t28 -52t10 -48.5q0 -38 -28.5 -81.5t-68.5 -82.5t-102 -109t-110 -140l4 -5q53 17 129 17q117 0 212 -66.5t146 -171t51 -219.5q0 -216 -149 -361t-381 -145q-241 0 -386 137.5 t-145 360.5zM365 473q0 -75 55 -130.5t131 -55.5t131 55.5t55 130.5t-55 130.5t-131 55.5t-131 -55.5t-55 -130.5z" />
<glyph unicode="7" horiz-adv-x="985" d="M-6 1305q0 62 40.5 107.5t112.5 45.5h672q77 0 124.5 -49t47.5 -109q0 -23 -7 -49.5t-14.5 -45t-25.5 -56.5l-465 -1004q-18 -40 -29.5 -60.5t-33.5 -47t-52 -38t-71 -11.5q-73 0 -118.5 47t-45.5 102q0 25 9.5 56t17 47.5t26.5 54.5l408 856h-443q-72 0 -112.5 46 t-40.5 108z" />
<glyph unicode="8" d="M35 442q0 105 49.5 198.5t146.5 152.5q-49 39 -92 116t-43 172q0 98 38 177.5t103.5 129.5t150.5 76.5t181 26.5t181 -26.5t150.5 -76.5t103.5 -129.5t38 -177.5q0 -95 -43 -172t-92 -116q97 -59 147 -152.5t50 -198.5q0 -203 -148 -339t-387 -136t-386.5 136t-147.5 339 zM379 477q0 -79 55.5 -134.5t134.5 -55.5q80 0 135.5 55.5t55.5 134.5t-56 135t-135 56t-134.5 -55.5t-55.5 -135.5zM428 1055q0 -57 42 -99.5t99 -42.5t99.5 42.5t42.5 99.5t-42.5 99t-99.5 42t-99 -42t-42 -99z" />
<glyph unicode="9" horiz-adv-x="1101" d="M20 985q0 216 149.5 361t381.5 145q241 0 385.5 -137.5t144.5 -360.5q0 -322 -288 -680q-125 -155 -192 -227t-105.5 -95.5t-81.5 -23.5q-39 0 -71.5 17t-50.5 42.5t-28 52t-10 48.5q0 38 28.5 81.5t68.5 83t102 109.5t110 140l-4 4q-53 -17 -129 -17q-117 0 -212.5 66.5 t-146.5 171t-51 219.5zM365 985q0 -75 55 -130.5t131 -55.5t131 55.5t55 130.5t-55 130.5t-131 55.5t-131 -55.5t-55 -130.5z" />
<glyph unicode=":" horiz-adv-x="569" d="M106 145q0 72 53.5 125.5t125.5 53.5t125 -53.5t53 -125.5q0 -73 -53 -125.5t-125 -52.5t-125.5 52.5t-53.5 125.5zM106 784q0 72 53.5 125.5t125.5 53.5t125 -53.5t53 -125.5q0 -73 -53 -125.5t-125 -52.5t-125.5 52.5t-53.5 125.5z" />
<glyph unicode=";" horiz-adv-x="569" d="M-37 -170q0 39 31 98l168 301q54 95 145 95q68 0 112 -39t44 -101q0 -39 -31 -98l-168 -301q-53 -94 -145 -94q-68 0 -112 38.5t-44 100.5zM106 784q0 72 53.5 125.5t125.5 53.5t125 -53.5t53 -125.5q0 -73 -53 -125.5t-125 -52.5t-125.5 52.5t-53.5 125.5z" />
<glyph unicode="&#x3c;" horiz-adv-x="1228" d="M47 580q0 37 21.5 69t54.5 47l833 383q59 29 113 29q51 0 82 -33t31 -90q0 -42 -19 -73t-78 -56l-659 -276l659 -277q59 -25 78 -56t19 -73q0 -57 -31 -90t-82 -33q-54 0 -113 29l-833 383q-33 15 -54.5 47.5t-21.5 69.5z" />
<glyph unicode="=" horiz-adv-x="1228" d="M35 338q0 64 39 99.5t104 35.5h873q65 0 104 -35.5t39 -99.5t-39 -99.5t-104 -35.5h-873q-65 0 -104 35.5t-39 99.5zM35 821q0 64 39 99.5t104 35.5h873q65 0 104 -35.5t39 -99.5t-39 -99.5t-104 -35.5h-873q-65 0 -104 35.5t-39 99.5z" />
<glyph unicode="&#x3e;" horiz-adv-x="1228" d="M47 174q0 42 18.5 73t77.5 56l660 277l-660 276q-59 25 -77.5 56t-18.5 73q0 57 31 90t82 33q53 0 112 -29l834 -383q33 -15 54.5 -47t21.5 -69t-21.5 -69.5t-54.5 -47.5l-834 -383q-59 -29 -112 -29q-51 0 -82 33t-31 90z" />
<glyph unicode="?" horiz-adv-x="1024" d="M18 1128q0 83 44 153.5t113.5 115t150.5 69.5t159 25q137 0 251 -53t184.5 -158t70.5 -244q0 -353 -354 -424v-41q0 -70 -44.5 -114.5t-115.5 -44.5t-115.5 44.5t-44.5 114.5v164q0 23 5.5 41.5t11.5 31t21 23t24 15.5t32 10.5t32 7t36 6.5q156 29 156 156q0 51 -41.5 92 t-108.5 41q-43 0 -75.5 -13.5t-51.5 -34t-39 -44.5t-37.5 -44.5t-47.5 -34t-68 -13.5q-61 0 -104.5 45.5t-43.5 107.5zM299 145q0 72 53 125.5t125 53.5t125 -53.5t53 -125.5q0 -73 -53 -125.5t-125 -52.5t-125 52.5t-53 125.5z" />
<glyph unicode="@" horiz-adv-x="1638" d="M72 727q0 160 62 302.5t167 243.5t249 159.5t304 58.5q145 0 274.5 -44t227 -123.5t154.5 -198.5t57 -261q0 -94 -22 -176t-58 -140t-83.5 -105t-96 -76t-98 -48.5t-88 -27.5t-66.5 -8q-118 0 -121 102h-4q-91 -102 -254 -102q-102 0 -185 98t-83 250q0 211 118 351 t281 140q90 0 147 -30.5t103 -96.5l8 37q16 74 96 74q38 0 64 -23.5t26 -64.5q0 -18 -8 -57l-63 -353q-13 -59 -13 -73q0 -39 39 -39q65 0 120.5 80.5t55.5 230.5q0 160 -69 274.5t-188.5 170t-276.5 55.5q-153 0 -280.5 -77.5t-201 -210.5t-73.5 -292q0 -263 161 -419 t412 -156q122 0 220 29.5t155 76.5q29 23 59 23q31 0 54.5 -22.5t23.5 -53.5q0 -33 -22 -53q-27 -27 -69 -55.5t-103.5 -59.5t-145.5 -50.5t-172 -19.5q-217 0 -398 96.5t-288.5 271.5t-107.5 392zM641 682q0 -75 33.5 -120.5t103.5 -45.5q101 0 160 61t59 152 q0 71 -40.5 115.5t-114.5 44.5q-85 0 -143 -62.5t-58 -144.5z" />
<glyph unicode="A" horiz-adv-x="1290" d="M-2 123q0 40 9.5 81t39.5 124l320 862q17 45 25.5 68.5t25.5 61.5t30.5 57.5t34.5 45t43 38t52 21.5t65 9q36 0 66.5 -9t53 -21.5t44 -37.5t35.5 -45.5t30.5 -58t26 -61t25.5 -68.5l319 -862q30 -83 39.5 -124t9.5 -81q0 -61 -44 -98t-115 -37q-75 0 -111.5 40.5 t-63.5 121.5l-40 131h-545l-41 -131q-28 -82 -63.5 -122t-110.5 -40q-71 0 -115.5 37t-44.5 98zM471 588h348l-166 534h-4z" />
<glyph unicode="B" horiz-adv-x="1214" d="M80 166v1126q0 76 49 121t117 45h391q187 0 298.5 -105.5t111.5 -275.5q0 -53 -17 -100t-45 -81t-55 -56.5t-58 -40.5q133 -26 213 -124t80 -235q0 -89 -30 -166.5t-89 -139.5t-159 -98t-230 -36h-411q-68 0 -117 45t-49 121zM412 295h209q91 0 145.5 35.5t54.5 113.5 q0 77 -58.5 113.5t-141.5 36.5h-209v-299zM412 889h151q72 0 112 35t40 102t-39.5 102t-112.5 35h-151v-274z" />
<glyph unicode="C" horiz-adv-x="1214" d="M43 729q0 164 52 305t145 242t228.5 158t297.5 57q80 0 154 -12t140.5 -37.5t106 -72.5t39.5 -109q0 -63 -40.5 -110.5t-102.5 -47.5q-33 0 -125.5 34.5t-163.5 34.5q-97 0 -171 -37t-117.5 -100.5t-65 -140t-21.5 -164.5q0 -118 38 -214t118 -156t190 -60 q70 0 125.5 10.5t83 23.5t59 23.5t58.5 10.5q37 0 65.5 -12t43.5 -29.5t24.5 -40t12 -39.5t2.5 -33q0 -52 -30.5 -95t-78.5 -70.5t-110 -46t-122 -26.5t-118 -8q-135 0 -250.5 39t-200.5 109t-145.5 165t-90.5 209t-30 240z" />
<glyph unicode="D" horiz-adv-x="1366" d="M80 166v1126q0 76 49 121t117 45h397q158 0 288.5 -59.5t215 -159.5t130.5 -229t46 -271q0 -140 -36 -260t-99.5 -207t-149.5 -149t-186 -92.5t-209 -30.5h-397q-68 0 -117 45t-49 121zM412 307h176q187 0 283 117t96 315q0 190 -94 301t-271 111h-190v-844z" />
<glyph unicode="E" horiz-adv-x="948" d="M80 166v1126q0 76 49 121t117 45h508q77 0 121.5 -41.5t44.5 -111.5q0 -72 -44 -113t-122 -41h-342v-264h313q78 0 122 -41.5t44 -112.5t-44 -112t-122 -41h-313v-273h354q78 0 122 -40.5t44 -112.5q0 -70 -44.5 -112t-121.5 -42h-520q-68 0 -117 45t-49 121z" />
<glyph unicode="F" horiz-adv-x="909" d="M80 164v1128q0 76 49 121t117 45h508q77 0 121.5 -41.5t44.5 -111.5q0 -72 -44 -113t-122 -41h-342v-260h299q78 0 122 -41.5t44 -112.5t-44 -112t-122 -41h-299v-420q0 -85 -45.5 -130.5t-120.5 -45.5t-120.5 45.5t-45.5 130.5z" />
<glyph unicode="G" horiz-adv-x="1478" d="M43 729q0 163 54.5 305t149 242t228 157.5t285.5 57.5q104 0 204 -21.5t181 -61t130.5 -101.5t49.5 -136q0 -62 -40.5 -100.5t-108.5 -38.5q-33 0 -66 15.5t-64.5 38t-67.5 45t-89 38t-115 15.5q-169 0 -272 -130t-103 -325q0 -69 13.5 -133.5t42.5 -123.5t71.5 -102.5 t104.5 -69.5t137 -26q130 0 214.5 77.5t96.5 205.5h-190q-77 0 -121.5 42t-44.5 112q0 72 44 112.5t122 40.5h358q176 0 176 -202q0 -196 -80 -353t-232.5 -249.5t-350.5 -92.5q-135 0 -250.5 39t-200.5 109t-145.5 165t-90.5 209t-30 240z" />
<glyph unicode="H" horiz-adv-x="1441" d="M80 164v1130q0 85 45.5 130.5t120.5 45.5t120.5 -45.5t45.5 -130.5v-393h618v393q0 85 45.5 130.5t120.5 45.5t120.5 -45.5t45.5 -130.5v-1130q0 -85 -45.5 -130.5t-120.5 -45.5t-120.5 45.5t-45.5 130.5v430h-618v-430q0 -85 -45.5 -130.5t-120.5 -45.5t-120.5 45.5 t-45.5 130.5z" />
<glyph unicode="I" horiz-adv-x="491" d="M80 164v1130q0 85 45.5 130.5t120.5 45.5t120.5 -45.5t45.5 -130.5v-1130q0 -85 -45.5 -130.5t-120.5 -45.5t-120.5 45.5t-45.5 130.5z" />
<glyph unicode="J" horiz-adv-x="872" d="M-16 207q0 65 39 111.5t112 46.5q41 0 103 -39t104 -39q65 0 92 49.5t27 171.5v786q0 85 45.5 130.5t120.5 45.5t120.5 -45.5t45.5 -130.5v-843q0 -53 -4.5 -98t-16.5 -96t-32.5 -91.5t-54.5 -78.5t-79 -63.5t-110 -41t-144 -15.5q-70 0 -143.5 19t-122.5 51 q-58 38 -80 73.5t-22 96.5z" />
<glyph unicode="K" horiz-adv-x="1214" d="M80 164v1130q0 85 45.5 130.5t120.5 45.5t120.5 -45.5t45.5 -130.5v-405l456 497q46 51 80 67.5t76 16.5q59 0 112.5 -48t53.5 -111t-66 -133l-395 -398l432 -469q34 -36 48.5 -54t29 -47t14.5 -58q0 -76 -50.5 -120t-123.5 -44q-14 0 -28 2t-28 9t-24 11t-25 17 t-21 17.5t-22 21t-19 19.5t-20 23l-18 19l-462 520v-483q0 -85 -45.5 -130.5t-120.5 -45.5t-120.5 45.5t-45.5 130.5z" />
<glyph unicode="L" horiz-adv-x="909" d="M80 166v1128q0 85 45.5 130.5t120.5 45.5t120.5 -45.5t45.5 -130.5v-987h356q78 0 122 -40.5t44 -112.5q0 -70 -44.5 -112t-121.5 -42h-522q-68 0 -117 45t-49 121z" />
<glyph unicode="M" horiz-adv-x="1781" d="M35 145q0 57 55 367l131 750q37 208 219 208q31 0 56 -4t47 -15.5t38.5 -24t33 -38t28.5 -47.5t27.5 -63t27 -75t29.5 -91l162 -502h4l162 502q21 67 33.5 103.5t30.5 81t32 67t34 47t42 35t50 17.5t64 7q183 0 220 -208l131 -750q55 -310 55 -367q0 -60 -43.5 -108.5 t-112.5 -48.5q-43 0 -76 12.5t-52 31t-32.5 50t-19.5 58.5t-12 67l-99 647h-4l-223 -717q-25 -80 -66.5 -114.5t-115.5 -34.5t-115.5 34.5t-66.5 114.5l-224 717h-4l-98 -647q-7 -50 -16.5 -83t-29.5 -67.5t-56.5 -51.5t-90.5 -17q-69 0 -112 48.5t-43 108.5z" />
<glyph unicode="N" horiz-adv-x="1441" d="M80 164v1130q0 85 45.5 130.5t120.5 45.5q27 0 48.5 -6.5t37 -14.5t41.5 -35.5t43 -48t59 -73.5l551 -690h4v692q0 85 45.5 130.5t120.5 45.5t120.5 -45.5t45.5 -130.5v-1130q0 -85 -45.5 -130.5t-120.5 -45.5q-33 0 -56 6.5t-51.5 32t-50.5 51.5t-71 88l-551 690h-4 v-692q0 -85 -45.5 -130.5t-120.5 -45.5t-120.5 45.5t-45.5 130.5z" />
<glyph unicode="O" horiz-adv-x="1519" d="M43 729q0 229 89 402t251.5 266.5t376.5 93.5t376.5 -93.5t251.5 -266.5t89 -402t-89 -402t-251.5 -266.5t-376.5 -93.5t-376.5 93.5t-251.5 266.5t-89 402zM399 729q0 -90 21 -169t63 -144.5t113.5 -103.5t163.5 -38t163.5 38t113 103.5t62.5 144.5t21 169t-21 169 t-62.5 144.5t-113 103.5t-163.5 38t-163.5 -38t-113.5 -103.5t-63 -144.5t-21 -169z" />
<glyph unicode="P" horiz-adv-x="1175" d="M80 164v1128q0 76 49 121t117 45h407q98 0 186.5 -31.5t159 -91.5t112.5 -156t42 -216q0 -220 -129.5 -357t-359.5 -137h-252v-305q0 -85 -45.5 -130.5t-120.5 -45.5t-120.5 45.5t-45.5 130.5zM412 764h178q101 0 160 59t59 140q0 96 -59 148t-160 52h-178v-399z" />
<glyph unicode="Q" horiz-adv-x="1519" d="M43 729q0 229 89 402t251.5 266.5t376.5 93.5t376.5 -93.5t251.5 -266.5t89 -402q0 -281 -131 -471l79 -70q65 -57 86 -89t21 -72q0 -61 -39 -101.5t-98 -40.5q-42 0 -79.5 19t-101.5 76l-88 77q-156 -90 -366 -90q-214 0 -376.5 93.5t-251.5 266.5t-89 402zM399 729 q0 -90 21 -169t63 -144.5t113.5 -103.5t163.5 -38q56 0 100 15l-4 2q-65 56 -85.5 89t-20.5 73q0 61 39 101t98 40q43 0 79.5 -18.5t100.5 -75.5l10 -8q43 107 43 237q0 90 -21 169t-62.5 144.5t-113 103.5t-163.5 38t-163.5 -38t-113.5 -103.5t-63 -144.5t-21 -169z" />
<glyph unicode="R" horiz-adv-x="1175" d="M80 164v1128q0 76 49 121t117 45h399q221 0 354.5 -124t133.5 -328q0 -161 -91.5 -271t-248.5 -139l288 -311q36 -39 53 -72t17 -72q0 -20 -9 -44t-27.5 -49.5t-53.5 -42.5t-80 -17q-59 0 -90.5 19t-67.5 63l-407 514h-4v-420q0 -85 -45.5 -130.5t-120.5 -45.5 t-120.5 45.5t-45.5 130.5zM412 829h219q79 0 124.5 46.5t45.5 117.5q0 72 -48.5 115t-121.5 43h-219v-322z" />
<glyph unicode="S" horiz-adv-x="1099" d="M10 207q0 72 42 124t114 52q32 0 86.5 -21t126.5 -42t145 -21q91 0 133.5 38.5t42.5 98.5q0 18 -4 33.5t-14.5 29t-21 24t-30.5 21t-36 17.5t-44.5 17t-48.5 16.5t-56.5 17.5t-59.5 19q-62 20 -103.5 37t-92.5 49t-81.5 70.5t-51.5 99.5t-21 137q0 93 28 170t77 131.5 t115.5 92t143 55.5t160.5 18q195 0 304.5 -60.5t109.5 -158.5q0 -68 -41 -112t-107 -44q-49 0 -128 27.5t-154 27.5q-68 0 -110 -32t-42 -86q0 -14 2.5 -25.5t10.5 -21.5t16 -17.5t25.5 -16t32 -15t42.5 -15.5t50 -16.5t61.5 -20t70.5 -22.5q61 -20 107 -40.5t95 -56 t80.5 -78.5t52 -108t20.5 -145q0 -123 -43 -217.5t-120 -153t-176.5 -88t-217.5 -29.5q-77 0 -159.5 15t-158 43t-124 76t-48.5 106z" />
<glyph unicode="T" horiz-adv-x="950" d="M-49 1305q0 73 44.5 113t127.5 40h704q83 0 127.5 -40t44.5 -113q0 -70 -45 -112t-127 -42h-186v-987q0 -85 -45.5 -130.5t-120.5 -45.5t-120.5 45.5t-45.5 130.5v987h-186q-82 0 -127 42t-45 112z" />
<glyph unicode="U" horiz-adv-x="1402" d="M70 586v708q0 85 45.5 130.5t120.5 45.5t120 -45.5t45 -130.5v-708q0 -141 85 -220t214 -79t215 79t86 220v708q0 85 45.5 130.5t120.5 45.5t120.5 -45.5t45.5 -130.5v-708q0 -284 -176 -451.5t-457 -167.5q-184 0 -326.5 73.5t-223 215t-80.5 330.5z" />
<glyph unicode="V" horiz-adv-x="1175" d="M-41 1309q0 65 46 113t116 48q36 0 64.5 -9t45 -20.5t32.5 -35.5t22.5 -38.5t19.5 -45.5l283 -746l282 746q13 31 19.5 46t22.5 38.5t33 35t45.5 20.5t64.5 9q70 0 116 -48t46 -113q0 -33 -35 -121l-414 -1024q-34 -83 -51 -109q-46 -67 -133 -67q-41 0 -71 12.5 t-51 40.5t-31 48t-26 60q-1 3 -2 5t-2 5t-2 5l-405 1024q-35 88 -35 121z" />
<glyph unicode="W" horiz-adv-x="1859" d="M-8 1309q0 68 46.5 114.5t119.5 46.5q140 0 172 -147l170 -786h4l239 763q30 93 74.5 131.5t112.5 38.5t112 -38.5t74 -131.5l240 -763h4l170 786q32 147 172 147q73 0 119.5 -46.5t46.5 -114.5q0 -25 -5 -53.5t-16 -71t-12 -45.5l-221 -903q-17 -69 -31 -108t-40 -74.5 t-65 -50.5t-98 -15q-93 0 -149 45t-86 137l-213 668h-4l-213 -668q-30 -92 -86.5 -137t-149.5 -45q-59 0 -98 15t-64.5 50.5t-39.5 74.5t-31 108l-221 903q-1 3 -12 45.5t-16 71t-5 53.5z" />
<glyph unicode="X" horiz-adv-x="1253" d="M0 150q0 44 13.5 71t58.5 88l354 475l-291 385q-61 81 -61 148q0 61 46 107t128 46q32 0 58 -10t52 -37t39 -44t43 -60l187 -258l186 258q24 34 34 48t31.5 39t37.5 35.5t40 19.5t50 9q82 0 128 -46t46 -107q0 -66 -62 -148l-291 -385l355 -475q44 -60 57.5 -87.5 t13.5 -71.5q0 -70 -46 -116t-115 -46q-47 0 -84 21t-78 77l-303 414l-303 -414q-41 -56 -78 -77t-84 -21q-69 0 -115.5 46t-46.5 116z" />
<glyph unicode="Y" horiz-adv-x="1101" d="M-39 1323q0 65 50.5 106t125.5 41q32 0 58 -9t48 -30t32.5 -33.5t29.5 -39.5l246 -350l246 350q19 27 29.5 39.5t32.5 33.5t48 30t58 9q75 0 125.5 -41t50.5 -106q0 -44 -21.5 -83.5t-95.5 -142.5q-13 -18 -20 -28l-287 -385v-520q0 -85 -45.5 -130.5t-120.5 -45.5 t-120.5 45.5t-45.5 130.5v520l-287 385q-98 137 -115 170q-22 42 -22 84z" />
<glyph unicode="Z" horiz-adv-x="1099" d="M-23 182q0 39 14.5 69.5t47.5 76.5l627 835h-490q-84 0 -130 41t-46 107t46 106.5t130 40.5h713q50 0 88.5 -12t59.5 -29.5t34 -41.5t17 -43.5t4 -39.5q0 -33 -22.5 -79t-48.5 -83.5t-85 -115.5l-530 -707h540q85 0 130.5 -41.5t45.5 -111.5q0 -71 -46 -112.5t-130 -41.5 h-735q-127 0 -180.5 47t-53.5 135z" />
<glyph unicode="[" horiz-adv-x="720" d="M164 -203v1553q0 69 36 105t105 36h281q51 0 83.5 -32.5t32.5 -84.5t-32.5 -84.5t-83.5 -32.5h-140v-1368h140q51 0 83.5 -32t32.5 -84t-32.5 -84.5t-83.5 -32.5h-281q-69 0 -105 36t-36 105z" />
<glyph unicode="\" horiz-adv-x="948" d="M23 1380q0 52 30.5 81.5t83.5 29.5q26 0 48.5 -13t43.5 -42t33.5 -50.5t34.5 -62.5l551 -1051q78 -148 78 -194q0 -52 -31 -81.5t-84 -29.5q-26 0 -48.5 13t-43.5 42t-33.5 50.5t-34.5 62.5l-551 1051q-77 146 -77 194z" />
<glyph unicode="]" horiz-adv-x="720" d="M18 -227q0 52 33 84t84 32h139v1368h-139q-51 0 -84 32.5t-33 84.5t33 84.5t84 32.5h281q69 0 105 -36t36 -105v-1553q0 -69 -36 -105t-105 -36h-281q-51 0 -84 32.5t-33 84.5z" />
<glyph unicode="^" horiz-adv-x="1228" d="M137 719q0 37 27 90l315 573q27 51 59 69.5t76 18.5t76.5 -18.5t59.5 -69.5l315 -573q27 -52 27 -90q0 -30 -23.5 -52t-81.5 -22q-51 0 -83 17t-58 65l-232 424l-231 -424q-26 -48 -58 -65t-83 -17q-58 0 -81.5 22t-23.5 52z" />
<glyph unicode="_" horiz-adv-x="1024" d="M-59 -205q0 24 16.5 37.5t42.5 13.5h1024q26 0 42.5 -13.5t16.5 -37.5t-16.5 -37.5t-42.5 -13.5h-1024q-26 0 -42.5 13.5t-16.5 37.5z" />
<glyph unicode="`" horiz-adv-x="454" d="M-139 1479q0 60 36.5 100.5t96.5 40.5q44 0 84 -18l307 -134q76 -29 76 -112q0 -60 -36.5 -101t-96.5 -41q-41 0 -84 19l-307 133q-76 29 -76 113z" />
<glyph unicode="a" horiz-adv-x="1175" d="M31 545q0 159 64.5 291.5t178 209t250.5 76.5q91 0 156 -29t119 -94q20 43 57.5 73t91.5 30q70 0 115 -48t45 -118v-782q0 -70 -45 -118t-115 -48q-54 0 -91.5 29.5t-57.5 72.5q-54 -65 -119 -94t-156 -29q-137 0 -250.5 77t-178 209.5t-64.5 291.5zM350 545 q0 -115 58.5 -193t160.5 -78t160.5 78t58.5 193t-58.5 192.5t-160.5 77.5t-160.5 -77.5t-58.5 -192.5z" />
<glyph unicode="b" horiz-adv-x="1175" d="M68 154v1257q0 70 45 118t114 48q70 0 115 -48t45 -118v-379q52 43 111.5 66.5t152.5 23.5q137 0 250.5 -76.5t178.5 -209t65 -291.5t-65 -291.5t-178.5 -209.5t-250.5 -77q-91 0 -155.5 28.5t-118.5 94.5q-20 -43 -58 -72.5t-92 -29.5q-69 0 -114 48t-45 118zM387 545 q0 -115 58.5 -193t160.5 -78t160.5 78t58.5 193t-58.5 192.5t-160.5 77.5t-160.5 -77.5t-58.5 -192.5z" />
<glyph unicode="c" horiz-adv-x="948" d="M31 545q0 161 66 292t190 208t282 77q61 0 121 -9.5t121 -31.5t99 -66t38 -104q0 -64 -37.5 -106.5t-93.5 -42.5q-36 0 -98.5 26.5t-130.5 26.5q-116 0 -177 -76.5t-61 -193.5q0 -115 58.5 -193t160.5 -78q60 0 111.5 14t85.5 28t51 14q54 0 92.5 -44.5t38.5 -97.5 q0 -56 -40.5 -101t-102 -70t-123 -37.5t-113.5 -12.5q-158 0 -282 77.5t-190 208.5t-66 292z" />
<glyph unicode="d" horiz-adv-x="1175" d="M31 545q0 159 64.5 291.5t178 209t250.5 76.5q93 0 152.5 -23.5t111.5 -66.5v379q0 70 45 118t115 48t115 -48t45 -118v-1257q0 -70 -45 -118t-115 -48q-54 0 -91.5 29.5t-57.5 72.5q-54 -65 -119 -94t-156 -29q-137 0 -250.5 77t-178 209.5t-64.5 291.5zM350 545 q0 -115 58.5 -193t160.5 -78t160.5 78t58.5 193t-58.5 192.5t-160.5 77.5t-160.5 -77.5t-58.5 -192.5z" />
<glyph unicode="e" d="M31 545q0 153 70.5 285t199.5 212t289 80q115 0 213.5 -45.5t164.5 -121t103 -173t37 -202.5q0 -81 -37 -110.5t-119 -29.5h-577q0 -29 12 -57t38.5 -57t79.5 -46.5t126 -17.5q54 0 107.5 15.5t88 34.5t71 34.5t60.5 15.5q55 0 94.5 -38.5t39.5 -98.5q0 -75 -75.5 -135.5 t-189.5 -91.5t-237 -31q-168 0 -296.5 77.5t-195.5 208.5t-67 292zM375 659h413q0 62 -60 127.5t-146 65.5t-146.5 -65.5t-60.5 -127.5z" />
<glyph unicode="f" horiz-adv-x="681" d="M-49 942q0 74 44.5 111t123.5 37h37v143q0 148 92.5 246t238.5 98q41 0 75.5 -6.5t67 -21.5t51.5 -45.5t19 -73.5q0 -148 -151 -148q-39 0 -56.5 -22.5t-17.5 -81.5v-88h88q79 0 123.5 -37t44.5 -111t-44.5 -110.5t-123.5 -36.5h-88v-641q0 -70 -45 -118t-115 -48 q-69 0 -114 48t-45 118v641h-37q-79 0 -123.5 36.5t-44.5 110.5z" />
<glyph unicode="g" horiz-adv-x="1175" d="M31 545q0 159 64.5 291.5t178 209t250.5 76.5q91 0 156 -29t119 -94q20 43 57.5 73t91.5 30q70 0 115 -48t45 -118v-830q0 -119 -30.5 -214.5t-83.5 -159.5t-127 -106.5t-158 -61.5t-181 -19q-68 0 -145.5 13.5t-154.5 40t-127 75t-50 109.5q0 53 42.5 96t90.5 43 q30 0 66 -14.5t67.5 -32.5t86.5 -32.5t118 -14.5q143 0 204.5 71.5t61.5 211.5h-4q-88 -123 -290 -123q-112 0 -202 46t-146 124.5t-85.5 177.5t-29.5 209zM350 545q0 -121 58 -198t161 -77t161 77t58 198q0 115 -58.5 192.5t-160.5 77.5t-160.5 -77.5t-58.5 -192.5z" />
<glyph unicode="h" d="M74 154v1257q0 70 45 118t114 48q70 0 115 -48t45 -118v-369h4q129 80 271 80q176 0 286.5 -95t110.5 -282v-591q0 -70 -45 -118t-115 -48t-115 48t-45 118v505q0 85 -47 139t-129 54t-129 -54t-47 -139v-505q0 -70 -45 -118t-115 -48q-69 0 -114 48t-45 118z" />
<glyph unicode="i" horiz-adv-x="454" d="M37 1386q0 79 56 135t134 56t134.5 -56t56.5 -135t-56.5 -134.5t-134.5 -55.5t-134 55.5t-56 134.5zM68 154v782q0 70 45 118t114 48q70 0 115 -48t45 -118v-782q0 -70 -45 -118t-115 -48q-69 0 -114 48t-45 118z" />
<glyph unicode="j" horiz-adv-x="454" d="M37 1386q0 79 56 135t134 56t134.5 -56t56.5 -135t-56.5 -134.5t-134.5 -55.5t-134 55.5t-56 134.5zM68 -289v1225q0 70 45 118t114 48q70 0 115 -48t45 -118v-1225q0 -70 -45 -118t-115 -48q-69 0 -114 48t-45 118z" />
<glyph unicode="k" horiz-adv-x="1024" d="M74 154v1257q0 70 45 118t114 48q70 0 115 -48t45 -118v-680l260 260l18 18l18.5 18.5t17.5 16.5t19 16.5t18 13t21 12t21 8.5t23.5 6.5t24.5 1.5q68 0 111.5 -43.5t43.5 -104.5q0 -40 -23.5 -72.5t-88.5 -95.5l-172 -170l268 -340q76 -94 76 -141q0 -54 -41 -100.5 t-117 -46.5q-55 0 -88.5 21.5t-85.5 86.5l-320 418h-4v-360q0 -70 -45 -118t-115 -48q-69 0 -114 48t-45 118z" />
<glyph unicode="l" horiz-adv-x="454" d="M68 154v1257q0 70 45 118t114 48q70 0 115 -48t45 -118v-1257q0 -70 -45 -118t-115 -48q-69 0 -114 48t-45 118z" />
<glyph unicode="m" horiz-adv-x="1744" d="M74 154v782q0 70 45 118t114 48q59 0 101 -31t59 -72q37 59 111.5 91t163.5 32q79 0 161 -31.5t136 -99.5q41 31 63.5 46t65.5 39t87 35t93 11q176 0 286.5 -95t110.5 -282v-591q0 -70 -45 -118t-115 -48q-69 0 -114 48t-45 118v505q0 80 -43 136.5t-117 56.5t-117 -56.5 t-43 -136.5v-505q0 -70 -45 -118t-115 -48q-69 0 -114 48t-45 118v505q0 80 -43 136.5t-117 56.5t-117 -56.5t-43 -136.5v-505q0 -70 -45 -118t-115 -48q-69 0 -114 48t-45 118z" />
<glyph unicode="n" d="M74 154v782q0 70 45 118t114 48q59 0 101 -31t59 -72q78 123 275 123q176 0 286.5 -95t110.5 -282v-591q0 -70 -45 -118t-115 -48t-115 48t-45 118v505q0 85 -47 139t-129 54t-129 -54t-47 -139v-505q0 -70 -45 -118t-115 -48q-69 0 -114 48t-45 118z" />
<glyph unicode="o" d="M31 545q0 161 66 292t190 208t282 77t282 -77t190.5 -208t66.5 -292t-66.5 -292t-190.5 -208.5t-282 -77.5t-282 77.5t-190 208.5t-66 292zM350 545q0 -115 58.5 -193t160.5 -78t160.5 78t58.5 193t-58.5 192.5t-160.5 77.5t-160.5 -77.5t-58.5 -192.5z" />
<glyph unicode="p" horiz-adv-x="1175" d="M68 -289v1225q0 70 45 118t114 48q54 0 92 -30t58 -73q54 66 118.5 94.5t155.5 28.5q137 0 250.5 -76.5t178.5 -209t65 -291.5t-65 -291.5t-178.5 -209.5t-250.5 -77q-93 0 -152.5 23.5t-111.5 66.5v-346q0 -70 -45 -118t-115 -48q-69 0 -114 48t-45 118zM387 545 q0 -115 58.5 -193t160.5 -78t160.5 78t58.5 193t-58.5 192.5t-160.5 77.5t-160.5 -77.5t-58.5 -192.5z" />
<glyph unicode="q" horiz-adv-x="1175" d="M31 545q0 159 64.5 291.5t178 209t250.5 76.5q91 0 156 -29t119 -94q52 103 149 103q70 0 115 -48t45 -118v-1225q0 -70 -45 -118t-115 -48t-115 48t-45 118v346q-52 -43 -111.5 -66.5t-152.5 -23.5q-137 0 -250.5 77t-178 209.5t-64.5 291.5zM350 545q0 -115 58.5 -193 t160.5 -78t160.5 78t58.5 193t-58.5 192.5t-160.5 77.5t-160.5 -77.5t-58.5 -192.5z" />
<glyph unicode="r" horiz-adv-x="720" d="M74 154v782q0 70 45 118t114 48q59 0 101 -31t59 -72q103 123 221 123q65 0 114.5 -47t49.5 -119q0 -32 -10.5 -57t-25 -41t-45 -30.5t-53 -22.5t-66.5 -21q-110 -32 -147.5 -77.5t-37.5 -163.5v-389q0 -70 -45 -118t-115 -48q-69 0 -114 48t-45 118z" />
<glyph unicode="s" horiz-adv-x="872" d="M18 188q0 66 38.5 110t93.5 44q41 0 89.5 -23t104 -46t113.5 -23q46 0 68 18t22 45q0 14 -4 25t-14.5 20.5t-22.5 16.5t-35 16.5t-44.5 17.5t-58.5 22t-69 28q-136 56 -194 118t-58 183q0 69 29 133.5t80.5 115.5t130.5 82t172 31q53 0 113 -12.5t119 -38t97.5 -71.5 t38.5 -105t-37.5 -97t-95.5 -38q-27 0 -115 40t-141 40q-35 0 -59.5 -17.5t-24.5 -50.5q0 -25 27.5 -45.5t71.5 -37t97.5 -35t107 -46t97.5 -62.5t71.5 -92t27.5 -128q0 -163 -119.5 -261t-290.5 -98q-104 0 -199.5 25t-161 77t-65.5 119z" />
<glyph unicode="t" horiz-adv-x="681" d="M-49 942q0 74 44.5 111t123.5 37h37v208q0 70 45 118t114 48q70 0 115 -48t45 -118v-208h88q79 0 123.5 -37t44.5 -111t-44.5 -110.5t-123.5 -36.5h-88v-641q0 -70 -45 -118t-115 -48q-69 0 -114 48t-45 118v641h-37q-79 0 -123.5 36.5t-44.5 110.5z" />
<glyph unicode="u" d="M74 393v543q0 70 45 118t114 48q70 0 115 -48t45 -118v-498q0 -85 53 -130.5t123 -45.5t123 45.5t53 130.5v498q0 70 45 118t115 48t115 -48t45 -118v-543q0 -86 -26 -157t-72 -120.5t-109 -83.5t-135.5 -49.5t-153.5 -15.5t-153.5 15.5t-135.5 49.5t-108.5 83.5 t-71.5 120.5t-26 157z" />
<glyph unicode="v" horiz-adv-x="950" d="M-10 942q0 65 47 112.5t113 47.5q53 0 91 -25.5t62 -95.5l170 -483h4l170 483q24 69 62.5 95t91.5 26q66 0 113 -47.5t47 -112.5q0 -54 -50 -178l-260 -647q-53 -129 -176 -129t-176 129l-260 647q-49 122 -49 178z" />
<glyph unicode="w" horiz-adv-x="1556" d="M-10 948q0 66 43 110t119 44q57 0 96.5 -29.5t54.5 -83.5l156 -518h4l143 449q11 35 17.5 52t21.5 47t31 44.5t42.5 26.5t59.5 12t59.5 -12t42.5 -26.5t31 -44.5t21.5 -47t17.5 -52l144 -449h4l155 518q15 54 55 83.5t97 29.5q76 0 119 -44t43 -110q-4 -58 -49 -178 l-224 -625q-29 -81 -74 -119t-124 -38q-81 0 -121 39.5t-70 128.5l-125 376h-4l-125 -376q-30 -90 -69.5 -129t-120.5 -39q-79 0 -124.5 38t-74.5 119l-223 625q-45 120 -49 178z" />
<glyph unicode="x" horiz-adv-x="1024" d="M-16 147q0 31 12 60.5t21.5 42t29.5 35.5l272 288l-165 177q-78 83 -100.5 114.5t-22.5 71.5q0 73 46.5 119.5t106.5 46.5q55 0 89 -17t69 -61l170 -211l170 211q35 44 69 61t89 17q60 0 106.5 -46.5t46.5 -119.5q0 -40 -22.5 -71.5t-100.5 -114.5l-165 -177l272 -288 q20 -23 29.5 -35.5t21.5 -42t12 -60.5q0 -71 -47.5 -115t-115.5 -44q-46 0 -76.5 20.5t-65.5 61.5l-223 260l-223 -260q-23 -27 -39 -41.5t-43.5 -27.5t-59.5 -13q-68 0 -115.5 44t-47.5 115z" />
<glyph unicode="y" horiz-adv-x="1024" d="M0 952q0 68 46.5 109t109.5 41q116 0 163 -121l189 -487l178 434q36 85 74.5 129.5t99.5 44.5q74 0 119 -44.5t45 -117.5q0 -49 -39 -139l-473 -1104q-12 -26 -14 -31t-12.5 -27t-15.5 -27.5t-16.5 -21t-21.5 -20t-24.5 -12.5t-32 -10.5t-37.5 -2.5q-41 0 -73 15 t-49.5 37.5t-26.5 46t-9 45.5q0 38 10.5 71t42.5 105l107 239l-272 650q-68 158 -68 198z" />
<glyph unicode="z" horiz-adv-x="948" d="M-10 113q0 49 49 118l410 564h-281q-79 0 -123.5 36.5t-44.5 110.5t44.5 111t123.5 37h614q46 0 72 -8t49 -31q29 -29 29 -76q0 -36 -41 -92l-438 -588h338q79 0 123 -37t44 -111t-44 -110.5t-123 -36.5h-648q-42 0 -62 5t-44 18q-47 31 -47 90z" />
<glyph unicode="{" horiz-adv-x="720" d="M4 573q0 41 25 70t73 29q47 0 73 26t26 109v416q0 138 68 203t204 65h152q41 0 66.5 -24t25.5 -68t-25.5 -68t-66.5 -24h-52q-90 0 -90 -119v-406q0 -53 -17 -92t-39 -59.5t-57 -33.5t-56 -16t-52 -6v-4q31 -3 51.5 -6t56 -16t57.5 -33t39 -59t17 -92v-406 q0 -119 90 -119h52q41 0 66.5 -24t25.5 -68t-25.5 -68t-66.5 -24h-152q-136 0 -204 65t-68 203v416q0 83 -26 109t-73 26q-48 0 -73 29t-25 69z" />
<glyph unicode="|" horiz-adv-x="454" d="M104 100v1344q0 58 32 95.5t91 37.5t91 -37.5t32 -95.5v-1344q0 -58 -32 -95.5t-91 -37.5t-91 37.5t-32 95.5z" />
<glyph unicode="}" horiz-adv-x="720" d="M4 -252q0 44 25.5 68t66.5 24h51q91 0 91 119v406q0 53 17 92t39 59t57.5 33t56 16t51.5 6v4q-31 3 -52 6t-56 16t-57 33.5t-39 59.5t-17 92v406q0 119 -91 119h-51q-41 0 -66.5 24t-25.5 68t25.5 68t66.5 24h152q136 0 204 -65t68 -203v-416q0 -83 25.5 -109t72.5 -26 q48 0 73.5 -29.5t25.5 -69.5t-25.5 -69t-73.5 -29q-47 0 -72.5 -26t-25.5 -109v-416q0 -138 -68 -203t-204 -65h-152q-41 0 -66.5 24t-25.5 68z" />
<glyph unicode="~" horiz-adv-x="1228" d="M84 502q0 108 81.5 195t207.5 87q59 0 130 -21.5t124.5 -48t110.5 -48t91 -21.5q31 0 58 12.5t46.5 30.5t38 36.5t40 31t45.5 12.5q46 0 67 -31t21 -80q0 -69 -35 -132.5t-105.5 -106.5t-160.5 -43q-55 0 -123 21.5t-121 48t-110 48t-91 21.5q-31 0 -58 -12.5t-46.5 -31 t-37.5 -36.5t-39.5 -30.5t-45.5 -12.5q-46 0 -67 31t-21 80z" />
<glyph unicode="&#xa1;" horiz-adv-x="532" d="M88 944q0 73 53 125.5t125 52.5t125 -52.5t53 -125.5q0 -72 -53 -125t-125 -53t-125 53t-53 125zM106 -221v719q0 75 43 127.5t117 52.5t117 -52.5t43 -127.5v-719q0 -75 -43 -127.5t-117 -52.5t-117 52.5t-43 127.5z" />
<glyph unicode="&#xa2;" horiz-adv-x="1290" d="M186 545q0 150 59 275t169 205.5t254 96.5v119q0 25 18.5 44.5t42.5 19.5q25 0 43.5 -19.5t18.5 -44.5v-119q57 -4 108.5 -17t99.5 -36.5t76.5 -64.5t28.5 -93q0 -64 -37.5 -106.5t-93.5 -42.5q-37 0 -89 21.5t-93 27.5v-530q51 7 108 28t74 21q54 0 92.5 -44.5 t38.5 -97.5q0 -48 -30 -89t-78 -67.5t-100.5 -42.5t-104.5 -22v-131q0 -25 -18.5 -44t-43.5 -19t-43 19t-18 44v131q-217 23 -349.5 186t-132.5 392zM506 545q0 -96 43 -168.5t119 -93.5v520q-79 -21 -120.5 -91.5t-41.5 -166.5z" />
<glyph unicode="&#xa3;" horiz-adv-x="1290" d="M29 733q0 62 45.5 108t128.5 46h67q-45 112 -45 178q0 196 147 311t394 115q95 0 176 -18.5t136.5 -49.5t98 -69t66.5 -81t35.5 -81.5t11.5 -73.5q0 -61 -46.5 -106t-108.5 -45q-38 0 -65.5 17t-43 42.5t-36.5 55t-44.5 55t-70 42.5t-109.5 17q-83 0 -140 -43t-57 -123 q0 -18 4.5 -39.5t9.5 -35.5t13.5 -38t11.5 -32v2h180q83 0 129 -46t46 -108t-46 -107.5t-129 -45.5h-135q0 -86 -15.5 -142t-64.5 -119h543q81 0 130.5 -44t49.5 -115t-49.5 -115.5t-130.5 -44.5h-756q-84 0 -140 39.5t-56 120.5q0 43 14.5 75.5t36.5 59t45 58t43.5 90 t28.5 137.5h-129q-83 0 -128.5 45.5t-45.5 107.5z" />
<glyph unicode="&#xa4;" horiz-adv-x="1290" d="M123 729q0 160 86 287l-49 47q-31 31 -31 70q0 41 31.5 73.5t72.5 32.5q49 0 84 -35l39 -39q125 86 289 86t289 -86l39 39q35 35 84 35q41 0 72.5 -32.5t31.5 -73.5q0 -39 -31 -70l-49 -47q86 -127 86 -287t-86 -287l49 -47q31 -31 31 -69q0 -42 -31.5 -74.5t-72.5 -32.5 q-49 0 -84 35l-39 39q-125 -86 -289 -86t-289 86l-39 -39q-35 -35 -84 -35q-41 0 -72.5 32.5t-31.5 74.5q0 38 31 69l49 47q-86 127 -86 287zM381 729q0 -117 75.5 -196.5t190.5 -79.5q113 0 187.5 79t74.5 197q0 116 -75 196.5t-187 80.5q-113 0 -189.5 -81t-76.5 -196z " />
<glyph unicode="&#xa5;" horiz-adv-x="1290" d="M55 1323q0 65 50.5 106t125.5 41q32 0 58 -9t48 -30t32.5 -33.5t29.5 -39.5l246 -350l246 350q19 27 29.5 39.5t32.5 33.5t48 30t58 9q75 0 125.5 -41t50.5 -106q0 -44 -21.5 -83.5t-95.5 -142.5q-13 -18 -20 -28l-148 -188h156q38 0 68 -29.5t30 -67.5q0 -40 -30 -70 t-68 -30h-295v-115h295q38 0 68 -29t30 -67q0 -40 -30 -70t-68 -30h-295v-209q0 -85 -45.5 -130.5t-120.5 -45.5t-120.5 45.5t-45.5 130.5v209h-295q-38 0 -68 30t-30 70q0 38 30 67t68 29h295v115h-295q-38 0 -68 30t-30 70q0 38 30 67.5t68 29.5h156l-147 188 q-98 137 -115 169q-23 43 -23 85z" />
<glyph unicode="&#xa6;" horiz-adv-x="454" d="M104 100v402q0 58 32 95.5t91 37.5t91 -37.5t32 -95.5v-402q0 -58 -32 -95.5t-91 -37.5t-91 37.5t-32 95.5zM104 1042v402q0 58 32 95.5t91 37.5t91 -37.5t32 -95.5v-402q0 -58 -32 -95.5t-91 -37.5t-91 37.5t-32 95.5z" />
<glyph unicode="&#xa7;" horiz-adv-x="1251" d="M119 580q0 107 49 182t147 133q-60 51 -82 102t-22 131q0 157 117 260t305 103q110 0 207.5 -38t158 -106t60.5 -149q0 -50 -37 -93.5t-90 -43.5q-33 0 -64 19t-56 46t-51 54t-61.5 46t-74.5 19q-44 0 -75.5 -25t-31.5 -65q0 -44 34 -82t88 -68.5t119.5 -61.5 t131.5 -69.5t120 -83.5t88 -111.5t34 -146.5q0 -115 -51 -198t-140 -129q49 -41 80 -94.5t31 -106.5q0 -125 -58 -213.5t-153 -130t-217 -41.5q-112 0 -212 35.5t-163.5 103t-63.5 150.5q0 53 36 93t97 40q32 0 59.5 -18t50 -44t47.5 -52t64 -44t87 -18q50 0 84 22.5 t34 65.5q0 32 -21.5 61.5t-57.5 55t-83 51.5t-99 53.5t-104 57t-99 65.5t-83 77t-57.5 94t-21.5 112zM401 625q0 -15 5.5 -29.5t20.5 -30t25 -25t36.5 -27t36.5 -23.5t42 -25l199 -119q84 51 84 131q0 22 -13 43.5t-41 43.5t-49 36t-61 37l-201 119q-84 -51 -84 -131z" />
<glyph unicode="&#xa8;" horiz-adv-x="454" d="M-170 1417q0 66 47 113t113 47t113 -47t47 -113t-47 -113t-113 -47t-113 47t-47 113zM305 1417q0 66 47 113t113 47t113 -47t47 -113t-47 -113t-113 -47t-113 47t-47 113z" />
<glyph unicode="&#xa9;" horiz-adv-x="1638" d="M57 729q0 176 63.5 322t169.5 241t243 147t286 52q98 0 192.5 -23t179.5 -67t156.5 -110.5t123.5 -149t81 -188.5t29 -224t-29 -224t-81 -188.5t-123.5 -149t-156.5 -110.5t-179.5 -67t-192.5 -23q-149 0 -286 52t-243 147t-169.5 241t-63.5 322zM291 729q0 -127 41 -235 t111.5 -183t168 -117t207.5 -42q109 0 206 42t168.5 117t113 183.5t41.5 234.5q0 168 -71 301t-191.5 205t-266.5 72q-148 0 -268 -72t-190 -204.5t-70 -301.5zM442 735q0 193 110 317t294 124q148 0 243 -79t95 -167q0 -51 -28.5 -76t-57.5 -25q-38 0 -62.5 21.5 t-44.5 67.5q-13 32 -50.5 52.5t-94.5 20.5q-84 0 -133 -67t-49 -185q0 -115 50.5 -186.5t135.5 -71.5q55 0 91.5 24t51.5 54q27 49 50.5 70.5t62.5 21.5t62.5 -24.5t23.5 -65.5q0 -31 -23.5 -74.5t-65 -86.5t-109.5 -73t-144 -30q-182 0 -295 125t-113 313z" />
<glyph unicode="&#xaa;" horiz-adv-x="761" d="M23 1149q0 143 94 242.5t235 99.5q114 0 180 -72q25 72 97 72q53 0 81.5 -24t28.5 -66v-510q0 -41 -28.5 -65.5t-81.5 -24.5q-72 0 -97 71q-68 -71 -180 -71q-142 0 -235.5 100.5t-93.5 247.5zM244 1145q0 -59 37.5 -103.5t99.5 -44.5q63 0 100 44.5t37 103.5 q0 61 -37 105t-100 44q-62 0 -99.5 -44.5t-37.5 -104.5z" />
<glyph unicode="&#xab;" horiz-adv-x="1214" d="M123 571q0 107 82 168l172 125q58 43 104 43t75.5 -32t29.5 -76q0 -70 -56 -109l-182 -119l182 -120q56 -36 56 -107q0 -44 -29.5 -76t-75.5 -32t-104 43l-172 124q-82 59 -82 168zM629 571q0 107 82 168l172 125q58 43 104 43t75.5 -32t29.5 -76q0 -70 -56 -109 l-182 -119l182 -120q56 -36 56 -107q0 -44 -29.5 -76t-75.5 -32t-104 43l-172 124q-82 59 -82 168z" />
<glyph unicode="&#xac;" horiz-adv-x="1228" d="M35 821q0 64 39 99.5t104 35.5h852q99 0 131.5 -34.5t32.5 -128.5v-416q0 -64 -34.5 -104t-94.5 -40t-94.5 40t-34.5 104v309h-758q-65 0 -104 35.5t-39 99.5z" />
<glyph unicode="&#xad;" horiz-adv-x="872" d="M59 571q0 62 36.5 99t99.5 37h483q63 0 99 -37t36 -99t-36 -98.5t-99 -36.5h-483q-63 0 -99.5 36.5t-36.5 98.5z" />
<glyph unicode="&#xae;" horiz-adv-x="1638" d="M57 729q0 176 63.5 322t169.5 241t243 147t286 52q98 0 192.5 -23t179.5 -67t156.5 -110.5t123.5 -149t81 -188.5t29 -224t-29 -224t-81 -188.5t-123.5 -149t-156.5 -110.5t-179.5 -67t-192.5 -23q-149 0 -286 52t-243 147t-169.5 241t-63.5 322zM291 729q0 -127 41 -235 t111.5 -183t168 -117t207.5 -42q109 0 206 42t168.5 117t113 183.5t41.5 234.5q0 168 -71 301t-191.5 205t-266.5 72q-148 0 -268 -72t-190 -204.5t-70 -301.5zM516 426v621q0 44 26.5 68t65.5 24h256q147 0 221 -55t74 -191q0 -106 -55.5 -165t-132.5 -64l143 -193 q25 -35 25 -70q0 -20 -21.5 -43.5t-64.5 -23.5q-34 0 -54.5 14t-48.5 53l-188 263h-62v-238q0 -44 -26 -68t-66 -24q-39 0 -65.5 24t-26.5 68zM700 811h154q51 0 80 19t29 71t-29 71t-80 19h-154v-180z" />
<glyph unicode="&#xaf;" horiz-adv-x="454" d="M-147 1417q0 59 34.5 94t94.5 35h491q61 0 95 -35t34 -94t-34 -94t-95 -35h-491q-60 0 -94.5 35t-34.5 94z" />
<glyph unicode="&#xb0;" horiz-adv-x="819" d="M117 1198q0 123 85 208t208 85t207.5 -85t84.5 -208t-84.5 -208t-207.5 -85t-208 85t-85 208zM264 1198q0 -58 43.5 -101.5t102.5 -43.5q58 0 101.5 43.5t43.5 101.5t-43.5 101.5t-101.5 43.5q-59 0 -102.5 -43.5t-43.5 -101.5z" />
<glyph unicode="&#xb1;" horiz-adv-x="1228" d="M35 135q0 64 39 99.5t104 35.5h873q65 0 104 -35.5t39 -99.5t-39 -99.5t-104 -35.5h-873q-65 0 -104 35.5t-39 99.5zM35 745q0 64 39 100t104 36h301v135q0 65 35.5 104t99.5 39q65 0 100.5 -39t35.5 -104v-135h301q65 0 104 -36t39 -100t-39 -99.5t-104 -35.5h-301v-135 q0 -65 -35.5 -104t-100.5 -39q-64 0 -99.5 39t-35.5 104v135h-301q-65 0 -104 35.5t-39 99.5z" />
<glyph unicode="&#xb2;" horiz-adv-x="739" d="M33 682q1 34 44.5 86t105 107.5t123 112.5t104.5 116t43 104q0 35 -28.5 54.5t-62.5 19.5q-37 0 -58 -17.5t-30.5 -42t-19.5 -49t-33.5 -42t-62.5 -17.5q-53 0 -81 28t-28 66q0 117 92.5 200t235.5 83q132 0 220.5 -73.5t88.5 -192.5q0 -50 -19.5 -99.5t-57 -96.5 t-70.5 -82t-83.5 -83t-72.5 -71h225q47 0 73 -29t26 -70t-26 -69.5t-73 -28.5h-450q-49 0 -87 24.5t-38 61.5z" />
<glyph unicode="&#xb3;" horiz-adv-x="763" d="M45 819q0 40 28 67t72 27q31 0 53.5 -12.5t37.5 -30t31 -35t45.5 -30t70.5 -12.5q42 0 72 28.5t30 63.5q1 38 -22 57t-55.5 23.5t-65 9.5t-55.5 25t-23 59q0 36 19.5 56.5t47 27.5t55.5 13.5t47.5 23.5t19.5 49q0 26 -24 39.5t-60 13.5q-34 0 -61 -14t-43 -30t-42 -30 t-59 -14q-39 0 -63.5 28.5t-24.5 63.5q0 64 49.5 112.5t118 70.5t139.5 22q119 0 205 -65.5t86 -174.5q0 -108 -115 -174q78 -30 119 -89.5t41 -133.5q0 -122 -96.5 -196t-241.5 -74q-128 0 -232 70.5t-104 164.5z" />
<glyph unicode="&#xb4;" horiz-adv-x="454" d="M-6 1356q0 83 76 112l307 134q41 18 84 18q60 0 96.5 -40.5t36.5 -100.5q0 -84 -76 -113l-307 -133q-43 -19 -84 -19q-60 0 -96.5 41t-36.5 101z" />
<glyph unicode="&#xb5;" d="M74 -289v1225q0 70 45 118t114 48q70 0 115 -48t45 -118v-494q0 -85 53 -130.5t123 -45.5q82 0 129 54t47 139v477q0 70 45 118t115 48t115 -48t45 -118v-782q0 -70 -45 -118t-115 -48q-54 0 -91.5 29.5t-57.5 72.5q-82 -102 -183 -102q-123 0 -176 100h-4v-377 q0 -70 -45 -118t-115 -48q-69 0 -114 48t-45 118z" />
<glyph unicode="&#xb6;" horiz-adv-x="1269" d="M20 1094q0 107 37.5 180.5t109 112.5t157 55t200.5 16h520q57 0 90 -33.5t33 -89.5v-1581q0 -56 -33 -89.5t-90 -33.5t-89.5 33.5t-32.5 89.5v1520h-199v-1520q0 -56 -33 -89.5t-90 -33.5t-90 33.5t-33 89.5v989q-221 0 -339 92.5t-118 258.5z" />
<glyph unicode="&#xb7;" horiz-adv-x="569" d="M106 569q0 72 53.5 125.5t125.5 53.5t125 -53.5t53 -125.5q0 -73 -53 -125.5t-125 -52.5t-125.5 52.5t-53.5 125.5z" />
<glyph unicode="&#xb8;" horiz-adv-x="454" d="M23 -358q0 25 16 47t39 22q22 0 58 -15t57 -15q29 0 49 17.5t20 47.5q0 28 -19.5 42.5t-43.5 14.5h-41q-19 0 -33 14t-14 33q0 30 55 99l43 51h141l-80 -106q16 2 49 2q71 0 117.5 -44t46.5 -120q0 -60 -43 -104t-99.5 -63.5t-113.5 -19.5q-29 0 -58 3.5t-65 12.5 t-58.5 30t-22.5 51z" />
<glyph unicode="&#xb9;" horiz-adv-x="516" d="M-23 1380q0 41 26 70t73 29h188q48 0 82.5 -28t34.5 -85v-666q0 -48 -32 -82t-85 -34q-56 0 -86.5 33.5t-30.5 82.5v582h-71q-47 0 -73 28.5t-26 69.5z" />
<glyph unicode="&#xba;" horiz-adv-x="737" d="M12 1149q0 145 99 243.5t258 98.5q158 0 257 -99t99 -243q0 -148 -100.5 -248t-255.5 -100q-160 0 -258.5 99.5t-98.5 248.5zM233 1145q0 -59 37.5 -103.5t98.5 -44.5t98 44.5t37 103.5q0 60 -36.5 104.5t-98.5 44.5t-99 -44.5t-37 -104.5z" />
<glyph unicode="&#xbb;" horiz-adv-x="1214" d="M123 344q0 71 55 109l182 118l-182 121q-55 35 -55 107q0 44 29 76t75 32q47 0 105 -43l172 -125q82 -59 82 -168q0 -107 -82 -168l-172 -124q-58 -43 -105 -43q-46 0 -75 32t-29 76zM629 344q0 71 55 109l182 118l-182 121q-55 35 -55 107q0 44 29 76t75 32 q47 0 105 -43l172 -125q82 -59 82 -168q0 -107 -82 -168l-172 -124q-58 -43 -105 -43q-46 0 -75 32t-29 76z" />
<glyph unicode="&#xbc;" horiz-adv-x="1935" d="M59 1380q0 41 26 70t73 29h188q48 0 82.5 -28t34.5 -85v-666q0 -48 -32 -82t-85 -34q-56 0 -86.5 33.5t-30.5 82.5v582h-71q-47 0 -73 28.5t-26 69.5zM375 82q0 11 2 22.5t6.5 24.5t8 22t11.5 23.5t11 19.5t13 21t11 18l662 1149q31 55 59 82t68 27q52 0 86.5 -34 t34.5 -81q0 -13 -3.5 -28t-7 -25.5t-12.5 -28t-13 -24t-15.5 -25t-12.5 -20.5l-661 -1149q-31 -55 -59 -82t-68 -27q-52 0 -86.5 34t-34.5 81zM1026 256q0 10 2.5 21t5 19t8 18.5t8.5 16t9.5 15.5t7.5 12l317 455q28 47 65 63.5t99 16.5q83 0 128.5 -41t45.5 -109v-374h58 q46 0 71 -27.5t25 -71.5t-25 -71t-71 -27h-58v-88q0 -44 -30.5 -70t-87.5 -26q-54 0 -84.5 26t-30.5 70v88h-354q-56 0 -82.5 25t-26.5 59zM1311 369h178v260h-4z" />
<glyph unicode="&#xbd;" horiz-adv-x="1935" d="M86 1380q0 41 25.5 70t72.5 29h189q48 0 82 -28t34 -85v-666q0 -48 -31.5 -82t-84.5 -34q-56 0 -86.5 33.5t-30.5 82.5v582h-72q-47 0 -72.5 28.5t-25.5 69.5zM399 82q0 13 3.5 28t7 25.5t12.5 28t13 24t15.5 25t12.5 20.5l661 1149q31 55 59 82t68 27q52 0 86.5 -34 t34.5 -81q0 -11 -2 -22.5t-6.5 -24.5t-8 -22t-11.5 -23.5t-11 -19.5t-13 -21t-11 -18l-662 -1149q-31 -55 -59 -82t-68 -27q-52 0 -86.5 34t-34.5 81zM1176 86q1 34 44 86t104.5 107.5t123 112.5t104.5 116t43 104q0 35 -28 54.5t-62 19.5q-37 0 -58 -17.5t-31 -42l-20 -49 t-33.5 -42t-62.5 -17.5q-53 0 -80.5 28t-27.5 66q0 117 92.5 200t235.5 83q132 0 220.5 -73.5t88.5 -192.5q0 -50 -19.5 -99.5t-57 -96.5t-70.5 -82t-83.5 -83t-72.5 -71h225q47 0 72.5 -29t25.5 -70t-25.5 -69.5t-72.5 -28.5h-451q-49 0 -86.5 24.5t-37.5 61.5z" />
<glyph unicode="&#xbe;" horiz-adv-x="1935" d="M59 819q0 40 28.5 67t72.5 27q31 0 53.5 -12.5t37 -30t30.5 -35t45.5 -30t70.5 -12.5q42 0 72.5 28.5t30.5 63.5q1 38 -22 57t-55.5 23.5t-65 9.5t-55.5 25t-23 59q0 36 19.5 56.5t47 27.5t55 13.5t47 23.5t19.5 49q0 26 -24 39.5t-60 13.5q-34 0 -61 -14t-43 -30 t-42 -30t-59 -14q-39 0 -63.5 28.5t-24.5 63.5q0 64 49.5 112.5t118 70.5t139.5 22q119 0 205 -65.5t86 -174.5q0 -108 -115 -174q78 -30 119 -89.5t41 -133.5q0 -122 -96.5 -196t-241.5 -74q-128 0 -232 70.5t-104 164.5zM485 82q0 13 3.5 28t7 25.5t12.5 28t13 24t15.5 25 t12.5 20.5l661 1149q31 55 59 82t68 27q52 0 86.5 -34t34.5 -81q0 -11 -2 -22.5t-6.5 -24.5t-8 -22t-11.5 -23.5t-11 -19.5t-13 -21t-11 -18l-662 -1149q-31 -55 -59 -82t-68 -27q-52 0 -86.5 34t-34.5 81zM1026 256q0 10 2.5 21t5 19t8 18.5t8.5 16t9.5 15.5t7.5 12 l317 455q28 40 65.5 55t98.5 15q83 0 128.5 -41t45.5 -109v-364h58q46 0 71 -27.5t25 -71.5t-25 -71t-71 -27h-58v-88q0 -44 -30.5 -70t-87.5 -26q-54 0 -84.5 26t-30.5 70v88h-354q-56 0 -82.5 25t-26.5 59zM1311 369h178v260h-4z" />
<glyph unicode="&#xbf;" horiz-adv-x="1024" d="M33 53q0 353 354 424v41q0 70 44.5 115t115.5 45t115.5 -45t44.5 -115v-164q0 -23 -5.5 -41.5t-11.5 -31t-21 -23t-24 -15.5t-32 -10.5t-32 -7t-36 -6.5q-156 -29 -156 -156q0 -51 41.5 -92t108.5 -41q43 0 75.5 13.5t51.5 34.5t39 44.5t37.5 44.5t47.5 34.5t68 13.5 q61 0 104.5 -46t43.5 -108q0 -67 -29 -126t-77 -101.5t-109 -73.5t-125.5 -46t-126.5 -15q-102 0 -193 31t-161 88t-111 143.5t-41 191.5zM369 944q0 73 53 125.5t125 52.5t125 -52.5t53 -125.5q0 -72 -53 -125t-125 -53t-125 53t-53 125z" />
<glyph unicode="&#xc0;" horiz-adv-x="1290" d="M-2 123q0 40 9.5 81t39.5 124l320 862q17 45 25.5 68.5t25.5 61.5t30.5 57.5t34.5 45t43 38t52 21.5t65 9q36 0 66.5 -9t53 -21.5t44 -37.5t35.5 -45.5t30.5 -58t26 -61t25.5 -68.5l319 -862q30 -83 39.5 -124t9.5 -81q0 -61 -44 -98t-115 -37q-75 0 -111.5 40.5 t-63.5 121.5l-40 131h-545l-41 -131q-28 -82 -63.5 -122t-110.5 -40q-71 0 -115.5 37t-44.5 98zM279 1819q0 60 36.5 100.5t96.5 40.5q44 0 84 -18l307 -134q76 -29 76 -112q0 -60 -37 -101t-97 -41q-40 0 -83 19l-308 133q-75 29 -75 113zM471 588h348l-166 534h-4z" />
<glyph unicode="&#xc1;" horiz-adv-x="1290" d="M-2 123q0 40 9.5 81t39.5 124l320 862q17 45 25.5 68.5t25.5 61.5t30.5 57.5t34.5 45t43 38t52 21.5t65 9q36 0 66.5 -9t53 -21.5t44 -37.5t35.5 -45.5t30.5 -58t26 -61t25.5 -68.5l319 -862q30 -83 39.5 -124t9.5 -81q0 -61 -44 -98t-115 -37q-75 0 -111.5 40.5 t-63.5 121.5l-40 131h-545l-41 -131q-28 -82 -63.5 -122t-110.5 -40q-71 0 -115.5 37t-44.5 98zM412 1696q0 83 75 112l308 134q40 18 84 18q60 0 96.5 -40.5t36.5 -100.5q0 -84 -76 -113l-307 -133q-43 -19 -84 -19q-60 0 -96.5 41t-36.5 101zM471 588h348l-166 534h-4z " />
<glyph unicode="&#xc2;" horiz-adv-x="1290" d="M-2 123q0 40 9.5 81t39.5 124l320 862q17 45 25.5 68.5t25.5 61.5t30.5 57.5t34.5 45t43 38t52 21.5t65 9q36 0 66.5 -9t53 -21.5t44 -37.5t35.5 -45.5t30.5 -58t26 -61t25.5 -68.5l319 -862q30 -83 39.5 -124t9.5 -81q0 -61 -44 -98t-115 -37q-75 0 -111.5 40.5 t-63.5 121.5l-40 131h-545l-41 -131q-28 -82 -63.5 -122t-110.5 -40q-71 0 -115.5 37t-44.5 98zM229 1677q0 63 23.5 95t85.5 61l180 82q3 1 28 12l37.5 16.5t31.5 11t30 5.5t30 -5.5t31.5 -11l37.5 -16.5t28 -12l180 -82q62 -29 85.5 -61t23.5 -95q0 -51 -33.5 -87 t-75.5 -36q-8 0 -16 1t-14 1.5t-14.5 3t-12.5 3.5t-13.5 5t-12 5t-14 6t-13.5 6l-197 90l-196 -90q-72 -31 -111 -31q-42 0 -75.5 36t-33.5 87zM471 588h348l-166 534h-4z" />
<glyph unicode="&#xc3;" horiz-adv-x="1290" d="M-2 123q0 40 9.5 81t39.5 124l320 862q17 45 25.5 68.5t25.5 61.5t30.5 57.5t34.5 45t43 38t52 21.5t65 9q36 0 66.5 -9t53 -21.5t44 -37.5t35.5 -45.5t30.5 -58t26 -61t25.5 -68.5l319 -862q30 -83 39.5 -124t9.5 -81q0 -61 -44 -98t-115 -37q-75 0 -111.5 40.5 t-63.5 121.5l-40 131h-545l-41 -131q-28 -82 -63.5 -122t-110.5 -40q-71 0 -115.5 37t-44.5 98zM209 1686q0 84 62 153.5t145 69.5q66 0 139 -24t133 -48.5t94 -24.5q27 0 51.5 15t40 33.5t39 33.5t50.5 15q55 0 86.5 -38t31.5 -93q0 -84 -62 -154t-145 -70q-66 0 -139 24 t-133 48.5t-94 24.5q-27 0 -51.5 -15t-39.5 -33.5t-38.5 -33.5t-50.5 -15q-55 0 -87 38.5t-32 93.5zM471 588h348l-166 534h-4z" />
<glyph unicode="&#xc4;" horiz-adv-x="1290" d="M-2 123q0 40 9.5 81t39.5 124l320 862q17 45 25.5 68.5t25.5 61.5t30.5 57.5t34.5 45t43 38t52 21.5t65 9q36 0 66.5 -9t53 -21.5t44 -37.5t35.5 -45.5t30.5 -58t26 -61t25.5 -68.5l319 -862q30 -83 39.5 -124t9.5 -81q0 -61 -44 -98t-115 -37q-75 0 -111.5 40.5 t-63.5 121.5l-40 131h-545l-41 -131q-28 -82 -63.5 -122t-110.5 -40q-71 0 -115.5 37t-44.5 98zM248 1757q0 66 47 113t113 47t112.5 -47t46.5 -113t-46.5 -113t-112.5 -47t-113 47t-47 113zM471 588h348l-166 534h-4zM723 1757q0 66 47 113t113 47t112.5 -47t46.5 -113 t-46.5 -113t-112.5 -47t-113 47t-47 113z" />
<glyph unicode="&#xc5;" horiz-adv-x="1290" d="M-2 123q0 40 9.5 81t39.5 124l320 862q17 45 25.5 68.5t25.5 61.5t30.5 57.5t34.5 45t43 38t52 21.5t65 9q36 0 66.5 -9t53 -21.5t44 -37.5t35.5 -45.5t30.5 -58t26 -61t25.5 -68.5l319 -862q30 -83 39.5 -124t9.5 -81q0 -61 -44 -98t-115 -37q-75 0 -111.5 40.5 t-63.5 121.5l-40 131h-545l-41 -131q-28 -82 -63.5 -122t-110.5 -40q-71 0 -115.5 37t-44.5 98zM442 1735q0 83 60 142.5t143 59.5t143 -59.5t60 -142.5t-60 -143t-143 -60t-143 60t-60 143zM471 588h348l-166 534h-4zM553 1735q0 -37 27.5 -65t64.5 -28t64.5 28t27.5 65 t-27.5 64.5t-64.5 27.5t-64.5 -27.5t-27.5 -64.5z" />
<glyph unicode="&#xc6;" horiz-adv-x="1744" d="M-2 150q0 68 45 147l596 1014q24 41 46 67.5t44 42.5t53 24t61 10.5t79 2.5h626q77 0 121.5 -41.5t44.5 -111.5q0 -72 -44 -113t-122 -41h-342v-264h314q78 0 122 -41.5t44 -112.5t-44 -112t-122 -41h-314v-273h357q78 0 122 -40.5t44 -112.5q0 -70 -44.5 -112 t-121.5 -42h-523q-68 0 -117 45t-49 121v115h-464l-64 -127q-16 -33 -24 -47.5t-23 -39t-27.5 -35t-31.5 -23t-43 -17t-54 -4.5q-64 0 -104.5 44t-40.5 118zM575 588h299v559h-4z" />
<glyph unicode="&#xc7;" horiz-adv-x="1214" d="M43 729q0 164 52 305t145 242t228.5 158t297.5 57q80 0 154 -12t140.5 -37.5t106 -72.5t39.5 -109q0 -63 -40.5 -110.5t-102.5 -47.5q-33 0 -125.5 34.5t-163.5 34.5q-97 0 -171 -37t-117.5 -100.5t-65 -140t-21.5 -164.5q0 -118 38 -214t118 -156t190 -60 q70 0 125.5 10.5t83 23.5t59 23.5t58.5 10.5q37 0 65.5 -12t43.5 -29.5t24.5 -40t12 -39.5t2.5 -33q0 -52 -30.5 -95t-78.5 -70.5t-110 -46t-122 -26.5t-118 -8q-135 0 -250.5 39t-200.5 109t-145.5 165t-90.5 209t-30 240zM428 -358q0 25 16 47t39 22q21 0 57 -15t58 -15 q29 0 49.5 17.5t20.5 47.5q0 28 -20 42.5t-44 14.5h-41q-19 0 -33 14t-14 33q0 30 55 99l43 51h142l-80 -106q16 2 49 2q71 0 117.5 -44t46.5 -120q0 -60 -43 -104t-99.5 -63.5t-113.5 -19.5q-29 0 -58 3.5t-65.5 12.5t-59 30t-22.5 51z" />
<glyph unicode="&#xc8;" horiz-adv-x="948" d="M80 166v1126q0 76 49 121t117 45h508q77 0 121.5 -41.5t44.5 -111.5q0 -72 -44 -113t-122 -41h-342v-264h313q78 0 122 -41.5t44 -112.5t-44 -112t-122 -41h-313v-273h354q78 0 122 -40.5t44 -112.5q0 -70 -44.5 -112t-121.5 -42h-520q-68 0 -117 45t-49 121zM109 1819 q0 60 36.5 100.5t96.5 40.5q44 0 84 -18l307 -134q76 -29 76 -112q0 -60 -37 -101t-97 -41q-40 0 -83 19l-308 133q-75 29 -75 113z" />
<glyph unicode="&#xc9;" horiz-adv-x="948" d="M80 166v1126q0 76 49 121t117 45h508q77 0 121.5 -41.5t44.5 -111.5q0 -72 -44 -113t-122 -41h-342v-264h313q78 0 122 -41.5t44 -112.5t-44 -112t-122 -41h-313v-273h354q78 0 122 -40.5t44 -112.5q0 -70 -44.5 -112t-121.5 -42h-520q-68 0 -117 45t-49 121zM242 1696 q0 83 75 112l308 134q41 18 84 18q60 0 96.5 -40.5t36.5 -100.5q0 -84 -76 -113l-307 -133q-43 -19 -84 -19q-60 0 -96.5 41t-36.5 101z" />
<glyph unicode="&#xca;" horiz-adv-x="948" d="M59 1677q0 63 23.5 95t85.5 61l180 82q3 1 28 12l37.5 16.5t31.5 11t30 5.5t30 -5.5t31.5 -11l37.5 -16.5t28 -12l180 -82q62 -29 85.5 -61t23.5 -95q0 -51 -33.5 -87t-75.5 -36q-8 0 -16 1t-14 1.5t-14.5 3t-12.5 3.5t-13.5 5t-12 5t-14 6t-13.5 6l-197 90l-196 -90 q-72 -31 -111 -31q-42 0 -75.5 36t-33.5 87zM80 166v1126q0 76 49 121t117 45h508q77 0 121.5 -41.5t44.5 -111.5q0 -72 -44 -113t-122 -41h-342v-264h313q78 0 122 -41.5t44 -112.5t-44 -112t-122 -41h-313v-273h354q78 0 122 -40.5t44 -112.5q0 -70 -44.5 -112t-121.5 -42 h-520q-68 0 -117 45t-49 121z" />
<glyph unicode="&#xcb;" horiz-adv-x="948" d="M78 1757q0 66 47 113t113 47t112.5 -47t46.5 -113t-46.5 -113t-112.5 -47t-113 47t-47 113zM80 166v1126q0 76 49 121t117 45h508q77 0 121.5 -41.5t44.5 -111.5q0 -72 -44 -113t-122 -41h-342v-264h313q78 0 122 -41.5t44 -112.5t-44 -112t-122 -41h-313v-273h354 q78 0 122 -40.5t44 -112.5q0 -70 -44.5 -112t-121.5 -42h-520q-68 0 -117 45t-49 121zM553 1757q0 66 47 113t113 47t112.5 -47t46.5 -113t-46.5 -113t-112.5 -47t-113 47t-47 113z" />
<glyph unicode="&#xcc;" horiz-adv-x="491" d="M-121 1819q0 60 36.5 100.5t96.5 40.5q44 0 84 -18l307 -134q76 -29 76 -112q0 -60 -36.5 -101t-96.5 -41q-41 0 -84 19l-307 133q-76 29 -76 113zM80 164v1130q0 85 45.5 130.5t120.5 45.5t120.5 -45.5t45.5 -130.5v-1130q0 -85 -45.5 -130.5t-120.5 -45.5t-120.5 45.5 t-45.5 130.5z" />
<glyph unicode="&#xcd;" horiz-adv-x="491" d="M12 1696q0 83 76 112l307 134q41 18 84 18q60 0 96.5 -40.5t36.5 -100.5q0 -84 -75 -113l-308 -133q-43 -19 -84 -19q-60 0 -96.5 41t-36.5 101zM80 164v1130q0 85 45.5 130.5t120.5 45.5t120.5 -45.5t45.5 -130.5v-1130q0 -85 -45.5 -130.5t-120.5 -45.5t-120.5 45.5 t-45.5 130.5z" />
<glyph unicode="&#xce;" horiz-adv-x="491" d="M-170 1677q0 63 23.5 95t85.5 61l180 82q3 1 28 12l37.5 16.5t31.5 11t30 5.5t30 -5.5t31.5 -11l37.5 -16.5t28 -12l180 -82q62 -29 85.5 -61t23.5 -95q0 -51 -33.5 -87t-75.5 -36q-39 0 -111 31l-196 90l-197 -90q-3 -1 -12 -5t-12 -5.5t-11 -4.5l-12 -4.5t-11.5 -4 t-12.5 -3.5t-12 -2t-13.5 -1.5t-13.5 -0.5q-42 0 -75.5 36t-33.5 87zM80 164v1130q0 85 45.5 130.5t120.5 45.5t120.5 -45.5t45.5 -130.5v-1130q0 -85 -45.5 -130.5t-120.5 -45.5t-120.5 45.5t-45.5 130.5z" />
<glyph unicode="&#xcf;" horiz-adv-x="491" d="M-152 1757q0 66 47 113t113 47t113 -47t47 -113t-47 -113t-113 -47t-113 47t-47 113zM80 164v1130q0 85 45.5 130.5t120.5 45.5t120.5 -45.5t45.5 -130.5v-1130q0 -85 -45.5 -130.5t-120.5 -45.5t-120.5 45.5t-45.5 130.5zM324 1757q0 66 46.5 113t112.5 47t113 -47 t47 -113t-47 -113t-113 -47t-112.5 47t-46.5 113z" />
<glyph unicode="&#xd0;" horiz-adv-x="1366" d="M-104 739q0 59 34.5 94t94.5 35h55v424q0 76 49 121t117 45h397q158 0 288.5 -59.5t215 -159.5t130.5 -229t46 -271q0 -140 -36 -260t-99.5 -207t-149.5 -149t-186 -92.5t-209 -30.5h-397q-68 0 -117 45t-49 121v444h-55q-60 0 -94.5 35t-34.5 94zM412 307h176 q187 0 283 117t96 315q0 190 -94 301t-271 111h-190v-283h168q61 0 95 -35t34 -94t-34 -94t-95 -35h-168v-303z" />
<glyph unicode="&#xd1;" horiz-adv-x="1441" d="M80 164v1130q0 85 45.5 130.5t120.5 45.5q27 0 48.5 -6.5t37 -14.5t41.5 -35.5t43 -48t59 -73.5l551 -690h4v692q0 85 45.5 130.5t120.5 45.5t120.5 -45.5t45.5 -130.5v-1130q0 -85 -45.5 -130.5t-120.5 -45.5q-33 0 -56 6.5t-51.5 32t-50.5 51.5t-71 88l-551 690h-4 v-692q0 -85 -45.5 -130.5t-120.5 -45.5t-120.5 45.5t-45.5 130.5zM285 1686q0 84 62 153.5t145 69.5q66 0 139 -24t133 -48.5t94 -24.5q27 0 51.5 15t39.5 33.5t38.5 33.5t50.5 15q55 0 87 -38t32 -93q0 -84 -62 -154t-145 -70q-66 0 -139 24t-133 48.5t-94 24.5 q-27 0 -51.5 -15t-40 -33.5t-39 -33.5t-50.5 -15q-55 0 -86.5 38.5t-31.5 93.5z" />
<glyph unicode="&#xd2;" horiz-adv-x="1519" d="M43 729q0 229 89 402t251.5 266.5t376.5 93.5t376.5 -93.5t251.5 -266.5t89 -402t-89 -402t-251.5 -266.5t-376.5 -93.5t-376.5 93.5t-251.5 266.5t-89 402zM393 1819q0 60 36.5 100.5t96.5 40.5q44 0 84 -18l308 -134q75 -29 75 -112q0 -60 -36.5 -101t-96.5 -41 q-41 0 -84 19l-307 133q-76 29 -76 113zM399 729q0 -90 21 -169t63 -144.5t113.5 -103.5t163.5 -38t163.5 38t113 103.5t62.5 144.5t21 169t-21 169t-62.5 144.5t-113 103.5t-163.5 38t-163.5 -38t-113.5 -103.5t-63 -144.5t-21 -169z" />
<glyph unicode="&#xd3;" horiz-adv-x="1519" d="M43 729q0 229 89 402t251.5 266.5t376.5 93.5t376.5 -93.5t251.5 -266.5t89 -402t-89 -402t-251.5 -266.5t-376.5 -93.5t-376.5 93.5t-251.5 266.5t-89 402zM399 729q0 -90 21 -169t63 -144.5t113.5 -103.5t163.5 -38t163.5 38t113 103.5t62.5 144.5t21 169t-21 169 t-62.5 144.5t-113 103.5t-163.5 38t-163.5 -38t-113.5 -103.5t-63 -144.5t-21 -169zM526 1696q0 83 76 112l307 134q41 18 84 18q60 0 96.5 -40.5t36.5 -100.5q0 -84 -75 -113l-308 -133q-43 -19 -84 -19q-60 0 -96.5 41t-36.5 101z" />
<glyph unicode="&#xd4;" horiz-adv-x="1519" d="M43 729q0 229 89 402t251.5 266.5t376.5 93.5t376.5 -93.5t251.5 -266.5t89 -402t-89 -402t-251.5 -266.5t-376.5 -93.5t-376.5 93.5t-251.5 266.5t-89 402zM344 1677q0 63 23.5 95t85.5 61l180 82q3 1 28 12l37.5 16.5t31.5 11t30 5.5t30 -5.5t31.5 -11l37.5 -16.5 t28 -12l180 -82q62 -29 85.5 -61t23.5 -95q0 -51 -33.5 -87t-75.5 -36q-39 0 -111 31l-196 90l-197 -90q-3 -1 -12 -5t-12 -5.5t-11 -4.5l-12 -4.5t-11.5 -4t-12.5 -3.5t-12 -2t-13.5 -1.5t-13.5 -0.5q-42 0 -75.5 36t-33.5 87zM399 729q0 -90 21 -169t63 -144.5 t113.5 -103.5t163.5 -38t163.5 38t113 103.5t62.5 144.5t21 169t-21 169t-62.5 144.5t-113 103.5t-163.5 38t-163.5 -38t-113.5 -103.5t-63 -144.5t-21 -169z" />
<glyph unicode="&#xd5;" horiz-adv-x="1519" d="M43 729q0 229 89 402t251.5 266.5t376.5 93.5t376.5 -93.5t251.5 -266.5t89 -402t-89 -402t-251.5 -266.5t-376.5 -93.5t-376.5 93.5t-251.5 266.5t-89 402zM324 1686q0 84 61.5 153.5t144.5 69.5q52 0 110 -15t99.5 -33.5t85.5 -33.5t72 -15q27 0 51.5 15t39.5 33.5 t38.5 33.5t50.5 15q55 0 87 -38t32 -93q0 -84 -62 -154t-145 -70q-66 0 -139 24t-133 48.5t-94 24.5q-27 0 -51.5 -15t-40 -33.5t-39 -33.5t-50.5 -15q-55 0 -86.5 38.5t-31.5 93.5zM399 729q0 -90 21 -169t63 -144.5t113.5 -103.5t163.5 -38t163.5 38t113 103.5t62.5 144.5 t21 169t-21 169t-62.5 144.5t-113 103.5t-163.5 38t-163.5 -38t-113.5 -103.5t-63 -144.5t-21 -169z" />
<glyph unicode="&#xd6;" horiz-adv-x="1519" d="M43 729q0 229 89 402t251.5 266.5t376.5 93.5t376.5 -93.5t251.5 -266.5t89 -402t-89 -402t-251.5 -266.5t-376.5 -93.5t-376.5 93.5t-251.5 266.5t-89 402zM362 1757q0 66 47 113t113 47t113 -47t47 -113t-47 -113t-113 -47t-113 47t-47 113zM399 729q0 -90 21 -169 t63 -144.5t113.5 -103.5t163.5 -38t163.5 38t113 103.5t62.5 144.5t21 169t-21 169t-62.5 144.5t-113 103.5t-163.5 38t-163.5 -38t-113.5 -103.5t-63 -144.5t-21 -169zM838 1757q0 66 46.5 113t112.5 47t113 -47t47 -113t-47 -113t-113 -47t-112.5 47t-46.5 113z" />
<glyph unicode="&#xd7;" horiz-adv-x="1228" d="M109 213q0 48 36 84l283 283l-283 280q-36 36 -36 78q0 51 47 98q27 27 46.5 38t47.5 11q41 0 82 -41l282 -280l283 280q41 41 84 41q24 0 42.5 -11t49.5 -38q47 -44 47 -100q0 -37 -39 -76l-282 -280l282 -283q39 -39 39 -82q0 -47 -47 -94t-98 -47q-39 0 -78 39 l-283 282l-282 -282q-39 -39 -78 -39q-48 0 -98 47q-26 26 -37 46t-10 46z" />
<glyph unicode="&#xd8;" horiz-adv-x="1519" d="M12 0q0 32 12.5 54t36.5 48l125 138q-143 197 -143 489q0 229 89 402t251.5 266.5t376.5 93.5q259 0 438 -135l127 141q44 51 86 51q41 0 68.5 -23.5t27.5 -60.5q0 -32 -12.5 -54t-36.5 -48l-127 -139q146 -202 146 -494q0 -229 -89 -402t-251.5 -266.5t-376.5 -93.5 q-262 0 -441 137l-124 -137q-44 -51 -86 -51t-69.5 23.5t-27.5 60.5zM399 729q0 -122 37 -215l539 596q-87 74 -215 74q-92 0 -163.5 -38t-113.5 -103.5t-63 -144.5t-21 -169zM543 350q86 -76 217 -76q92 0 163.5 38t113 103.5t62.5 144.5t21 169q0 121 -37 219z" />
<glyph unicode="&#xd9;" horiz-adv-x="1402" d="M70 586v708q0 85 45.5 130.5t120.5 45.5t120 -45.5t45 -130.5v-708q0 -141 85 -220t214 -79t215 79t86 220v708q0 85 45.5 130.5t120.5 45.5t120.5 -45.5t45.5 -130.5v-708q0 -284 -176 -451.5t-457 -167.5q-184 0 -326.5 73.5t-223 215t-80.5 330.5zM336 1819 q0 60 36.5 100.5t96.5 40.5q43 0 84 -18l307 -134q76 -29 76 -112q0 -60 -36.5 -101t-96.5 -41q-41 0 -84 19l-307 133q-76 29 -76 113z" />
<glyph unicode="&#xda;" horiz-adv-x="1402" d="M70 586v708q0 85 45.5 130.5t120.5 45.5t120 -45.5t45 -130.5v-708q0 -141 85 -220t214 -79t215 79t86 220v708q0 85 45.5 130.5t120.5 45.5t120.5 -45.5t45.5 -130.5v-708q0 -284 -176 -451.5t-457 -167.5q-184 0 -326.5 73.5t-223 215t-80.5 330.5zM469 1696 q0 83 76 112l307 134q40 18 84 18q60 0 96.5 -40.5t36.5 -100.5q0 -84 -76 -113l-307 -133q-43 -19 -84 -19q-60 0 -96.5 41t-36.5 101z" />
<glyph unicode="&#xdb;" horiz-adv-x="1402" d="M70 586v708q0 85 45.5 130.5t120.5 45.5t120 -45.5t45 -130.5v-708q0 -141 85 -220t214 -79t215 79t86 220v708q0 85 45.5 130.5t120.5 45.5t120.5 -45.5t45.5 -130.5v-708q0 -284 -176 -451.5t-457 -167.5q-184 0 -326.5 73.5t-223 215t-80.5 330.5zM287 1677 q0 63 23 95.5t85 60.5l180 82q3 1 28 12l37.5 16.5t31.5 11t30 5.5t30 -5.5t31.5 -11l37.5 -16.5t28 -12l181 -82q62 -28 85 -60.5t23 -95.5q0 -51 -33 -87t-75 -36q-39 0 -111 31l-197 90l-196 -90q-72 -31 -111 -31q-42 0 -75 36t-33 87z" />
<glyph unicode="&#xdc;" horiz-adv-x="1402" d="M70 586v708q0 85 45.5 130.5t120.5 45.5t120 -45.5t45 -130.5v-708q0 -141 85 -220t214 -79t215 79t86 220v708q0 85 45.5 130.5t120.5 45.5t120.5 -45.5t45.5 -130.5v-708q0 -284 -176 -451.5t-457 -167.5q-184 0 -326.5 73.5t-223 215t-80.5 330.5zM305 1757 q0 66 47 113t113 47t113 -47t47 -113t-47 -113t-113 -47t-113 47t-47 113zM780 1757q0 66 47 113t113 47t113 -47t47 -113t-47 -113t-113 -47t-113 47t-47 113z" />
<glyph unicode="&#xdd;" horiz-adv-x="1101" d="M-39 1323q0 65 50.5 106t125.5 41q32 0 58 -9t48 -30t32.5 -33.5t29.5 -39.5l246 -350l246 350q19 27 29.5 39.5t32.5 33.5t48 30t58 9q75 0 125.5 -41t50.5 -106q0 -44 -21.5 -83.5t-95.5 -142.5q-13 -18 -20 -28l-287 -385v-520q0 -85 -45.5 -130.5t-120.5 -45.5 t-120.5 45.5t-45.5 130.5v520l-287 385q-98 137 -115 170q-22 42 -22 84zM317 1696q0 83 76 112l307 134q40 18 84 18q60 0 97 -40.5t37 -100.5q0 -84 -76 -113l-307 -133q-43 -19 -84 -19q-60 0 -97 41t-37 101z" />
<glyph unicode="&#xde;" horiz-adv-x="1175" d="M80 164v1130q0 87 45.5 131.5t120.5 44.5t120.5 -44.5t45.5 -131.5v-53h241q98 0 186.5 -31.5t159 -91t112.5 -155.5t42 -215q0 -219 -129.5 -356.5t-359.5 -137.5h-252v-90q0 -87 -45.5 -131.5t-120.5 -44.5t-120.5 44.5t-45.5 131.5zM412 549h178q101 0 160 59t59 140 q0 96 -59 147t-160 51h-178v-397z" />
<glyph unicode="&#xdf;" horiz-adv-x="1175" d="M74 154v938q0 214 138.5 349.5t346.5 135.5q209 0 337 -121.5t128 -316.5q0 -80 -34.5 -153.5t-96.5 -115.5q120 -46 182 -152t62 -243q0 -108 -41.5 -204t-108.5 -162t-153 -104t-175 -38q-83 0 -132.5 40.5t-49.5 111.5t40 108t124 49q69 10 116.5 74t47.5 135 q0 54 -17.5 94.5t-46 62t-53 31.5t-51.5 15q-92 16 -133 50.5t-41 109.5q0 42 13.5 70t34.5 41.5t47 22.5l52 18t47 22.5t34.5 42t13.5 70.5q0 59 -39 97t-103 38q-170 0 -170 -242v-874q0 -70 -45 -118t-115 -48q-69 0 -114 48t-45 118z" />
<glyph unicode="&#xe0;" horiz-adv-x="1175" d="M31 545q0 159 64.5 291.5t178 209t250.5 76.5q91 0 156 -29t119 -94q20 43 57.5 73t91.5 30q70 0 115 -48t45 -118v-782q0 -70 -45 -118t-115 -48q-54 0 -91.5 29.5t-57.5 72.5q-54 -65 -119 -94t-156 -29q-137 0 -250.5 77t-178 209.5t-64.5 291.5zM221 1479 q0 60 36.5 100.5t96.5 40.5q44 0 84 -18l307 -134q76 -29 76 -112q0 -60 -36.5 -101t-96.5 -41q-41 0 -84 19l-307 133q-76 29 -76 113zM350 545q0 -115 58.5 -193t160.5 -78t160.5 78t58.5 193t-58.5 192.5t-160.5 77.5t-160.5 -77.5t-58.5 -192.5z" />
<glyph unicode="&#xe1;" horiz-adv-x="1175" d="M31 545q0 159 64.5 291.5t178 209t250.5 76.5q91 0 156 -29t119 -94q20 43 57.5 73t91.5 30q70 0 115 -48t45 -118v-782q0 -70 -45 -118t-115 -48q-54 0 -91.5 29.5t-57.5 72.5q-54 -65 -119 -94t-156 -29q-137 0 -250.5 77t-178 209.5t-64.5 291.5zM350 545 q0 -115 58.5 -193t160.5 -78t160.5 78t58.5 193t-58.5 192.5t-160.5 77.5t-160.5 -77.5t-58.5 -192.5zM354 1356q0 83 76 112l307 134q41 18 84 18q60 0 96.5 -40.5t36.5 -100.5q0 -84 -75 -113l-308 -133q-43 -19 -84 -19q-60 0 -96.5 41t-36.5 101z" />
<glyph unicode="&#xe2;" horiz-adv-x="1175" d="M31 545q0 159 64.5 291.5t178 209t250.5 76.5q91 0 156 -29t119 -94q20 43 57.5 73t91.5 30q70 0 115 -48t45 -118v-782q0 -70 -45 -118t-115 -48q-54 0 -91.5 29.5t-57.5 72.5q-54 -65 -119 -94t-156 -29q-137 0 -250.5 77t-178 209.5t-64.5 291.5zM172 1337 q0 63 23.5 95t85.5 61l180 82q3 1 28 12l37.5 16.5t31.5 11t30 5.5t30 -5.5t31.5 -11l37.5 -16.5t28 -12l180 -82q62 -29 85.5 -61t23.5 -95q0 -51 -33.5 -87t-75.5 -36q-39 0 -111 31l-196 90l-197 -90q-3 -1 -12 -5t-12 -5.5t-11 -4.5l-12 -4.5t-11.5 -4t-12.5 -3.5 t-12 -2t-13.5 -1.5t-13.5 -0.5q-42 0 -75.5 36t-33.5 87zM350 545q0 -115 58.5 -193t160.5 -78t160.5 78t58.5 193t-58.5 192.5t-160.5 77.5t-160.5 -77.5t-58.5 -192.5z" />
<glyph unicode="&#xe3;" horiz-adv-x="1175" d="M31 545q0 159 64.5 291.5t178 209t250.5 76.5q91 0 156 -29t119 -94q20 43 57.5 73t91.5 30q70 0 115 -48t45 -118v-782q0 -70 -45 -118t-115 -48q-54 0 -91.5 29.5t-57.5 72.5q-54 -65 -119 -94t-156 -29q-137 0 -250.5 77t-178 209.5t-64.5 291.5zM152 1346 q0 84 61.5 153.5t144.5 69.5q66 0 139.5 -24t133.5 -48t94 -24q27 0 51.5 15t39.5 33t38.5 33t50.5 15q55 0 87 -38t32 -93q0 -84 -62 -154t-145 -70q-66 0 -139 24t-133 48.5t-94 24.5q-27 0 -51.5 -15t-40 -33.5t-39 -33.5t-50.5 -15q-55 0 -86.5 38.5t-31.5 93.5z M350 545q0 -115 58.5 -193t160.5 -78t160.5 78t58.5 193t-58.5 192.5t-160.5 77.5t-160.5 -77.5t-58.5 -192.5z" />
<glyph unicode="&#xe4;" horiz-adv-x="1175" d="M31 545q0 159 64.5 291.5t178 209t250.5 76.5q91 0 156 -29t119 -94q20 43 57.5 73t91.5 30q70 0 115 -48t45 -118v-782q0 -70 -45 -118t-115 -48q-54 0 -91.5 29.5t-57.5 72.5q-54 -65 -119 -94t-156 -29q-137 0 -250.5 77t-178 209.5t-64.5 291.5zM190 1417 q0 66 47 113t113 47t113 -47t47 -113t-47 -113t-113 -47t-113 47t-47 113zM350 545q0 -115 58.5 -193t160.5 -78t160.5 78t58.5 193t-58.5 192.5t-160.5 77.5t-160.5 -77.5t-58.5 -192.5zM666 1417q0 66 46.5 113t112.5 47t113 -47t47 -113t-47 -113t-113 -47t-112.5 47 t-46.5 113z" />
<glyph unicode="&#xe5;" horiz-adv-x="1175" d="M31 545q0 159 64.5 291.5t178 209t250.5 76.5q91 0 156 -29t119 -94q20 43 57.5 73t91.5 30q70 0 115 -48t45 -118v-782q0 -70 -45 -118t-115 -48q-54 0 -91.5 29.5t-57.5 72.5q-54 -65 -119 -94t-156 -29q-137 0 -250.5 77t-178 209.5t-64.5 291.5zM350 545 q0 -115 58.5 -193t160.5 -78t160.5 78t58.5 193t-58.5 192.5t-160.5 77.5t-160.5 -77.5t-58.5 -192.5zM385 1366q0 83 60 143t143 60t143 -60t60 -143t-60 -143t-143 -60t-143 60t-60 143zM496 1366q0 -37 27.5 -64.5t64.5 -27.5t64.5 27.5t27.5 64.5t-27.5 64.5t-64.5 27.5 t-64.5 -27.5t-27.5 -64.5z" />
<glyph unicode="&#xe6;" horiz-adv-x="1896" d="M31 545q0 159 64.5 291.5t178 209t250.5 76.5q92 0 156.5 -29t114.5 -94h4q0 56 32.5 89.5t104.5 33.5q44 0 74.5 -21.5t44.5 -51.5q98 73 293 73q115 0 213.5 -45.5t164.5 -121t103 -173t37 -202.5q0 -81 -37 -110.5t-119 -29.5h-602q0 -27 16 -56.5t47 -57.5t88 -46 t130 -18q68 0 134 25t115 50t78 25q55 0 94 -38.5t39 -98.5q0 -75 -75.5 -135.5t-189 -91.5t-236.5 -31q-189 0 -297 74q-38 -74 -119 -74q-133 0 -133 123h-4q-50 -65 -114.5 -94t-156.5 -29q-137 0 -250.5 77t-178 209.5t-64.5 291.5zM350 545q0 -115 58.5 -193t160.5 -78 t160.5 78t58.5 193t-58.5 192.5t-160.5 77.5t-160.5 -77.5t-58.5 -192.5zM1108 659h438q0 63 -62.5 128t-156.5 65t-156.5 -65t-62.5 -128z" />
<glyph unicode="&#xe7;" horiz-adv-x="948" d="M31 545q0 161 66 292t190 208t282 77q61 0 121 -9.5t121 -31.5t99 -66t38 -104q0 -64 -37.5 -106.5t-93.5 -42.5q-36 0 -98.5 26.5t-130.5 26.5q-116 0 -177 -76.5t-61 -193.5q0 -115 58.5 -193t160.5 -78q60 0 111.5 14t85.5 28t51 14q54 0 92.5 -44.5t38.5 -97.5 q0 -56 -40.5 -101t-102 -70t-123 -37.5t-113.5 -12.5q-158 0 -282 77.5t-190 208.5t-66 292zM270 -358q0 25 16.5 47t39.5 22q22 0 57 -15t57 -15q29 0 49.5 17.5t20.5 47.5q0 28 -20 42.5t-44 14.5h-40q-19 0 -33.5 14t-14.5 33q0 6 2 13t4 12.5t6.5 13.5t7.5 13t9.5 13.5 t9 12t9.5 11.5t8 10l43 51h141l-80 -106q16 2 49 2q71 0 117.5 -44t46.5 -120q0 -60 -43 -104t-99.5 -63.5t-113.5 -19.5q-29 0 -58 3.5t-65.5 12.5t-59 30t-22.5 51z" />
<glyph unicode="&#xe8;" d="M31 545q0 153 70.5 285t199.5 212t289 80q115 0 213.5 -45.5t164.5 -121t103 -173t37 -202.5q0 -81 -37 -110.5t-119 -29.5h-577q0 -29 12 -57t38.5 -57t79.5 -46.5t126 -17.5q54 0 107.5 15.5t88 34.5t71 34.5t60.5 15.5q55 0 94.5 -38.5t39.5 -98.5q0 -75 -75.5 -135.5 t-189.5 -91.5t-237 -31q-168 0 -296.5 77.5t-195.5 208.5t-67 292zM203 1479q0 60 36.5 100.5t96.5 40.5q44 0 84 -18l307 -134q76 -29 76 -112q0 -60 -36.5 -101t-96.5 -41q-41 0 -84 19l-307 133q-76 29 -76 113zM375 659h413q0 62 -60 127.5t-146 65.5t-146.5 -65.5 t-60.5 -127.5z" />
<glyph unicode="&#xe9;" d="M31 545q0 153 70.5 285t199.5 212t289 80q115 0 213.5 -45.5t164.5 -121t103 -173t37 -202.5q0 -81 -37 -110.5t-119 -29.5h-577q0 -29 12 -57t38.5 -57t79.5 -46.5t126 -17.5q54 0 107.5 15.5t88 34.5t71 34.5t60.5 15.5q55 0 94.5 -38.5t39.5 -98.5q0 -75 -75.5 -135.5 t-189.5 -91.5t-237 -31q-168 0 -296.5 77.5t-195.5 208.5t-67 292zM336 1356q0 83 76 112l307 134q41 18 84 18q60 0 96.5 -40.5t36.5 -100.5q0 -84 -76 -113l-307 -133q-43 -19 -84 -19q-60 0 -96.5 41t-36.5 101zM375 659h413q0 62 -60 127.5t-146 65.5t-146.5 -65.5 t-60.5 -127.5z" />
<glyph unicode="&#xea;" d="M31 545q0 153 70.5 285t199.5 212t289 80q115 0 213.5 -45.5t164.5 -121t103 -173t37 -202.5q0 -81 -37 -110.5t-119 -29.5h-577q0 -29 12 -57t38.5 -57t79.5 -46.5t126 -17.5q54 0 107.5 15.5t88 34.5t71 34.5t60.5 15.5q55 0 94.5 -38.5t39.5 -98.5q0 -75 -75.5 -135.5 t-189.5 -91.5t-237 -31q-168 0 -296.5 77.5t-195.5 208.5t-67 292zM154 1337q0 63 23 95.5t85 60.5l180 82q3 1 28 12l37.5 16.5t31.5 11t30 5.5t30 -5.5t31.5 -11l37.5 -16.5t28 -12l181 -82q62 -28 85 -60.5t23 -95.5q0 -51 -33 -87t-75 -36q-39 0 -111 31l-197 90 l-196 -90q-72 -31 -111 -31q-42 0 -75 36t-33 87zM375 659h413q0 62 -60 127.5t-146 65.5t-146.5 -65.5t-60.5 -127.5z" />
<glyph unicode="&#xeb;" d="M31 545q0 153 70.5 285t199.5 212t289 80q115 0 213.5 -45.5t164.5 -121t103 -173t37 -202.5q0 -81 -37 -110.5t-119 -29.5h-577q0 -29 12 -57t38.5 -57t79.5 -46.5t126 -17.5q54 0 107.5 15.5t88 34.5t71 34.5t60.5 15.5q55 0 94.5 -38.5t39.5 -98.5q0 -75 -75.5 -135.5 t-189.5 -91.5t-237 -31q-168 0 -296.5 77.5t-195.5 208.5t-67 292zM172 1417q0 66 47 113t113 47t113 -47t47 -113t-47 -113t-113 -47t-113 47t-47 113zM375 659h413q0 62 -60 127.5t-146 65.5t-146.5 -65.5t-60.5 -127.5zM647 1417q0 66 47 113t113 47t113 -47t47 -113 t-47 -113t-113 -47t-113 47t-47 113z" />
<glyph unicode="&#xec;" horiz-adv-x="454" d="M-139 1479q0 60 36.5 100.5t96.5 40.5q44 0 84 -18l307 -134q76 -29 76 -112q0 -60 -36.5 -101t-96.5 -41q-41 0 -84 19l-307 133q-76 29 -76 113zM68 154v782q0 70 45 118t114 48q70 0 115 -48t45 -118v-782q0 -70 -45 -118t-115 -48q-69 0 -114 48t-45 118z" />
<glyph unicode="&#xed;" horiz-adv-x="454" d="M-6 1356q0 83 76 112l307 134q41 18 84 18q60 0 96.5 -40.5t36.5 -100.5q0 -84 -76 -113l-307 -133q-43 -19 -84 -19q-60 0 -96.5 41t-36.5 101zM68 154v782q0 70 45 118t114 48q70 0 115 -48t45 -118v-782q0 -70 -45 -118t-115 -48q-69 0 -114 48t-45 118z" />
<glyph unicode="&#xee;" horiz-adv-x="454" d="M-188 1337q0 63 23 95.5t85 60.5l180 82q3 1 28 12l37.5 16.5t31.5 11t30 5.5t30 -5.5t31.5 -11l37.5 -16.5t28 -12l181 -82q62 -28 85 -60.5t23 -95.5q0 -51 -33 -87t-75 -36q-39 0 -111 31l-197 90l-196 -90q-72 -31 -111 -31q-42 0 -75 36t-33 87zM68 154v782 q0 70 45 118t114 48q70 0 115 -48t45 -118v-782q0 -70 -45 -118t-115 -48q-69 0 -114 48t-45 118z" />
<glyph unicode="&#xef;" horiz-adv-x="454" d="M-170 1417q0 66 47 113t113 47t113 -47t47 -113t-47 -113t-113 -47t-113 47t-47 113zM68 154v782q0 70 45 118t114 48q70 0 115 -48t45 -118v-782q0 -70 -45 -118t-115 -48q-69 0 -114 48t-45 118zM305 1417q0 66 47 113t113 47t113 -47t47 -113t-47 -113t-113 -47 t-113 47t-47 113z" />
<glyph unicode="&#xf0;" d="M31 512q0 240 140 392.5t361 152.5q153 0 213 -66l5 4q-33 66 -89 133.5t-116 96.5l-189 -92q-68 -33 -100 -33q-33 0 -53.5 27t-20.5 55q0 32 15.5 48.5t54.5 35.5l125 61q-36 19 -54.5 30t-41.5 27t-34 28.5t-18.5 30t-7.5 36.5q0 48 47 83t125 35q71 0 157 -30.5 t155 -81.5l167 82q35 18 68 18q31 0 53.5 -23.5t22.5 -60.5q0 -32 -17 -48.5t-51 -31.5l-104 -51q119 -104 191.5 -291.5t72.5 -468.5q0 -132 -32 -246t-95.5 -204t-169 -141.5t-242.5 -51.5q-233 0 -385.5 153.5t-152.5 391.5zM350 512q0 -95 62.5 -166.5t156.5 -71.5 t156.5 71.5t62.5 166.5t-62.5 166.5t-156.5 71.5t-156.5 -71.5t-62.5 -166.5z" />
<glyph unicode="&#xf1;" d="M74 154v782q0 70 45 118t114 48q59 0 101 -31t59 -72q78 123 275 123q176 0 286.5 -95t110.5 -282v-591q0 -70 -45 -118t-115 -48t-115 48t-45 118v505q0 85 -47 139t-129 54t-129 -54t-47 -139v-505q0 -70 -45 -118t-115 -48q-69 0 -114 48t-45 118zM133 1346 q0 84 62 153.5t145 69.5q66 0 139.5 -24t133.5 -48t94 -24q27 0 51.5 15t39.5 33t38.5 33t50.5 15q55 0 87 -38t32 -93q0 -84 -62 -154t-145 -70q-52 0 -110 15t-99.5 33.5t-85.5 33.5t-72 15q-27 0 -51.5 -15t-39.5 -33.5t-38.5 -33.5t-50.5 -15q-55 0 -87 38.5t-32 93.5z " />
<glyph unicode="&#xf2;" d="M31 545q0 161 66 292t190 208t282 77t282 -77t190.5 -208t66.5 -292t-66.5 -292t-190.5 -208.5t-282 -77.5t-282 77.5t-190 208.5t-66 292zM203 1479q0 60 36.5 100.5t96.5 40.5q44 0 84 -18l307 -134q76 -29 76 -112q0 -60 -36.5 -101t-96.5 -41q-41 0 -84 19l-307 133 q-76 29 -76 113zM350 545q0 -115 58.5 -193t160.5 -78t160.5 78t58.5 193t-58.5 192.5t-160.5 77.5t-160.5 -77.5t-58.5 -192.5z" />
<glyph unicode="&#xf3;" d="M31 545q0 161 66 292t190 208t282 77t282 -77t190.5 -208t66.5 -292t-66.5 -292t-190.5 -208.5t-282 -77.5t-282 77.5t-190 208.5t-66 292zM336 1356q0 83 76 112l307 134q41 18 84 18q60 0 96.5 -40.5t36.5 -100.5q0 -84 -76 -113l-307 -133q-43 -19 -84 -19 q-60 0 -96.5 41t-36.5 101zM350 545q0 -115 58.5 -193t160.5 -78t160.5 78t58.5 193t-58.5 192.5t-160.5 77.5t-160.5 -77.5t-58.5 -192.5z" />
<glyph unicode="&#xf4;" d="M31 545q0 161 66 292t190 208t282 77t282 -77t190.5 -208t66.5 -292t-66.5 -292t-190.5 -208.5t-282 -77.5t-282 77.5t-190 208.5t-66 292zM154 1337q0 63 23 95.5t85 60.5l180 82q3 1 28 12l37.5 16.5t31.5 11t30 5.5t30 -5.5t31.5 -11l37.5 -16.5t28 -12l181 -82 q62 -28 85 -60.5t23 -95.5q0 -51 -33 -87t-75 -36q-39 0 -111 31l-197 90l-196 -90q-72 -31 -111 -31q-42 0 -75 36t-33 87zM350 545q0 -115 58.5 -193t160.5 -78t160.5 78t58.5 193t-58.5 192.5t-160.5 77.5t-160.5 -77.5t-58.5 -192.5z" />
<glyph unicode="&#xf5;" d="M31 545q0 161 66 292t190 208t282 77t282 -77t190.5 -208t66.5 -292t-66.5 -292t-190.5 -208.5t-282 -77.5t-282 77.5t-190 208.5t-66 292zM133 1346q0 84 62 153.5t145 69.5q66 0 139.5 -24t133.5 -48t94 -24q27 0 51.5 15t39.5 33t38.5 33t50.5 15q55 0 87 -38t32 -93 q0 -84 -62 -154t-145 -70q-52 0 -110 15t-99.5 33.5t-85.5 33.5t-72 15q-27 0 -51.5 -15t-39.5 -33.5t-38.5 -33.5t-50.5 -15q-55 0 -87 38.5t-32 93.5zM350 545q0 -115 58.5 -193t160.5 -78t160.5 78t58.5 193t-58.5 192.5t-160.5 77.5t-160.5 -77.5t-58.5 -192.5z" />
<glyph unicode="&#xf6;" d="M31 545q0 161 66 292t190 208t282 77t282 -77t190.5 -208t66.5 -292t-66.5 -292t-190.5 -208.5t-282 -77.5t-282 77.5t-190 208.5t-66 292zM172 1417q0 66 47 113t113 47t113 -47t47 -113t-47 -113t-113 -47t-113 47t-47 113zM350 545q0 -115 58.5 -193t160.5 -78 t160.5 78t58.5 193t-58.5 192.5t-160.5 77.5t-160.5 -77.5t-58.5 -192.5zM647 1417q0 66 47 113t113 47t113 -47t47 -113t-47 -113t-113 -47t-113 47t-47 113z" />
<glyph unicode="&#xf7;" horiz-adv-x="1228" d="M35 580q0 64 39 99.5t104 35.5h873q65 0 104 -35.5t39 -99.5t-39 -100t-104 -36h-873q-65 0 -104 36t-39 100zM424 145q0 77 57 134t133 57t133.5 -57t57.5 -134q0 -76 -57 -133t-134 -57q-76 0 -133 56.5t-57 133.5zM424 1014q0 76 57 133t133 57q77 0 134 -57t57 -133 t-57.5 -133.5t-133.5 -57.5t-133 57t-57 134z" />
<glyph unicode="&#xf8;" d="M-14 12q0 40 30 70l115 119q-100 145 -100 344q0 161 66 292t190 208t282 77q195 0 334 -114l74 75q30 32 42.5 43.5t27.5 19t32 7.5q31 0 52.5 -22t21.5 -54q0 -38 -31 -69l-112 -119q98 -149 98 -344q0 -161 -66.5 -292t-190.5 -208.5t-282 -77.5q-192 0 -333 115 l-74 -76q-41 -43 -59.5 -56t-43.5 -13q-31 0 -52 21.5t-21 53.5zM350 545q0 -53 15 -103l321 336q-49 37 -117 37q-102 0 -160.5 -77.5t-58.5 -192.5zM455 309q50 -35 114 -35q102 0 160.5 78t58.5 193q0 59 -14 100z" />
<glyph unicode="&#xf9;" d="M74 393v543q0 70 45 118t114 48q70 0 115 -48t45 -118v-498q0 -85 53 -130.5t123 -45.5t123 45.5t53 130.5v498q0 70 45 118t115 48t115 -48t45 -118v-543q0 -86 -26 -157t-72 -120.5t-109 -83.5t-135.5 -49.5t-153.5 -15.5t-153.5 15.5t-135.5 49.5t-108.5 83.5 t-71.5 120.5t-26 157zM203 1479q0 60 36.5 100.5t96.5 40.5q44 0 84 -18l307 -134q76 -29 76 -112q0 -60 -36.5 -101t-96.5 -41q-41 0 -84 19l-307 133q-76 29 -76 113z" />
<glyph unicode="&#xfa;" d="M74 393v543q0 70 45 118t114 48q70 0 115 -48t45 -118v-498q0 -85 53 -130.5t123 -45.5t123 45.5t53 130.5v498q0 70 45 118t115 48t115 -48t45 -118v-543q0 -86 -26 -157t-72 -120.5t-109 -83.5t-135.5 -49.5t-153.5 -15.5t-153.5 15.5t-135.5 49.5t-108.5 83.5 t-71.5 120.5t-26 157zM336 1356q0 83 76 112l307 134q41 18 84 18q60 0 96.5 -40.5t36.5 -100.5q0 -84 -76 -113l-307 -133q-43 -19 -84 -19q-60 0 -96.5 41t-36.5 101z" />
<glyph unicode="&#xfb;" d="M74 393v543q0 70 45 118t114 48q70 0 115 -48t45 -118v-498q0 -85 53 -130.5t123 -45.5t123 45.5t53 130.5v498q0 70 45 118t115 48t115 -48t45 -118v-543q0 -86 -26 -157t-72 -120.5t-109 -83.5t-135.5 -49.5t-153.5 -15.5t-153.5 15.5t-135.5 49.5t-108.5 83.5 t-71.5 120.5t-26 157zM154 1337q0 63 23 95.5t85 60.5l180 82q3 1 28 12l37.5 16.5t31.5 11t30 5.5t30 -5.5t31.5 -11l37.5 -16.5t28 -12l181 -82q62 -28 85 -60.5t23 -95.5q0 -51 -33 -87t-75 -36q-39 0 -111 31l-197 90l-196 -90q-72 -31 -111 -31q-42 0 -75 36t-33 87z " />
<glyph unicode="&#xfc;" d="M74 393v543q0 70 45 118t114 48q70 0 115 -48t45 -118v-498q0 -85 53 -130.5t123 -45.5t123 45.5t53 130.5v498q0 70 45 118t115 48t115 -48t45 -118v-543q0 -86 -26 -157t-72 -120.5t-109 -83.5t-135.5 -49.5t-153.5 -15.5t-153.5 15.5t-135.5 49.5t-108.5 83.5 t-71.5 120.5t-26 157zM172 1417q0 66 47 113t113 47t113 -47t47 -113t-47 -113t-113 -47t-113 47t-47 113zM647 1417q0 66 47 113t113 47t113 -47t47 -113t-47 -113t-113 -47t-113 47t-47 113z" />
<glyph unicode="&#xfd;" horiz-adv-x="1024" d="M0 952q0 68 46.5 109t109.5 41q116 0 163 -121l189 -487l178 434q36 85 74.5 129.5t99.5 44.5q74 0 119 -44.5t45 -117.5q0 -49 -39 -139l-473 -1104q-12 -26 -14 -31t-12.5 -27t-15.5 -27.5t-16.5 -21t-21.5 -20t-24.5 -12.5t-32 -10.5t-37.5 -2.5q-41 0 -73 15 t-49.5 37.5t-26.5 46t-9 45.5q0 38 10.5 71t42.5 105l107 239l-272 650q-68 158 -68 198zM279 1356q0 83 75 112l308 134q40 18 83 18q60 0 97 -40.5t37 -100.5q0 -84 -76 -113l-307 -133q-43 -19 -84 -19q-60 0 -96.5 41t-36.5 101z" />
<glyph unicode="&#xfe;" horiz-adv-x="1175" d="M68 -295v1712q0 75 42 117.5t117 42.5t117.5 -42.5t42.5 -117.5v-385q52 43 111.5 66.5t152.5 23.5q137 0 250.5 -76.5t178.5 -209t65 -291.5t-65 -291.5t-178.5 -209.5t-250.5 -77q-93 0 -152.5 23.5t-111.5 66.5v-352q0 -75 -42.5 -117.5t-117.5 -42.5t-117 42.5 t-42 117.5zM387 545q0 -115 58.5 -193t160.5 -78t160.5 78t58.5 193t-58.5 192.5t-160.5 77.5t-160.5 -77.5t-58.5 -192.5z" />
<glyph unicode="&#xff;" horiz-adv-x="1024" d="M0 952q0 68 46.5 109t109.5 41q116 0 163 -121l189 -487l178 434q36 85 74.5 129.5t99.5 44.5q74 0 119 -44.5t45 -117.5q0 -49 -39 -139l-473 -1104q-12 -26 -14 -31t-12.5 -27t-15.5 -27.5t-16.5 -21t-21.5 -20t-24.5 -12.5t-32 -10.5t-37.5 -2.5q-41 0 -73 15 t-49.5 37.5t-26.5 46t-9 45.5q0 38 10.5 71t42.5 105l107 239l-272 650q-68 158 -68 198zM115 1417q0 66 46.5 113t112.5 47t113 -47t47 -113t-47 -113t-113 -47t-112.5 47t-46.5 113zM590 1417q0 66 47 113t113 47t112.5 -47t46.5 -113t-46.5 -113t-112.5 -47t-113 47 t-47 113z" />
<glyph unicode="&#x152;" horiz-adv-x="1972" d="M43 729q0 228 87 400.5t250 267t380 94.5q81 0 141.5 -9t108 -31t68 -34.5t63.5 -44.5q6 18 12.5 30.5t20.5 26.5t39 21.5t61 7.5h508q77 0 121.5 -41.5t44.5 -111.5q0 -72 -44 -113t-122 -41h-342v-264h313q78 0 122 -41.5t44 -112.5t-44 -112t-122 -41h-313v-273h350 q78 0 122 -40.5t44 -112.5q0 -70 -44.5 -112t-121.5 -42h-496q-77 0 -113.5 29t-47.5 65q-30 -25 -56.5 -42.5t-72 -39.5t-107.5 -33.5t-137 -11.5q-217 0 -380 94.5t-250 267t-87 400.5zM399 729q0 -96 21 -177t63 -144t113 -98.5t164 -35.5q90 0 159 38t109 103.5 t60 144.5t20 169q0 67 -8 126.5t-31.5 121.5t-61 106.5t-101 72.5t-146.5 28q-93 0 -164 -35.5t-113 -98.5t-63 -144t-21 -177z" />
<glyph unicode="&#x153;" horiz-adv-x="1896" d="M31 545q0 161 66 292t190 208t282 77q131 0 221 -34t185 -111q154 145 373 145q115 0 213.5 -45.5t164.5 -121t103 -173t37 -202.5q0 -81 -37 -110.5t-119 -29.5h-602q0 -27 16 -56.5t47 -57.5t88 -46t130 -18q68 0 134 25t115 50t78 25q55 0 94 -38.5t39 -98.5 q0 -75 -75.5 -135.5t-189 -91.5t-236.5 -31q-240 0 -394 148q-67 -72 -167 -110t-218 -38q-158 0 -282 77.5t-190 208.5t-66 292zM350 545q0 -115 58.5 -193t160.5 -78t160.5 78t58.5 193t-58.5 192.5t-160.5 77.5t-160.5 -77.5t-58.5 -192.5zM1108 659h438q0 63 -62.5 128 t-156.5 65t-156.5 -65t-62.5 -128z" />
<glyph unicode="&#x178;" horiz-adv-x="1101" d="M-39 1323q0 65 50.5 106t125.5 41q32 0 58 -9t48 -30t32.5 -33.5t29.5 -39.5l246 -350l246 350q19 27 29.5 39.5t32.5 33.5t48 30t58 9q75 0 125.5 -41t50.5 -106q0 -44 -21.5 -83.5t-95.5 -142.5q-13 -18 -20 -28l-287 -385v-520q0 -85 -45.5 -130.5t-120.5 -45.5 t-120.5 45.5t-45.5 130.5v520l-287 385q-98 137 -115 170q-22 42 -22 84zM154 1757q0 66 46.5 113t112.5 47t113 -47t47 -113t-47 -113t-113 -47t-112.5 47t-46.5 113zM629 1757q0 66 46.5 113t112.5 47t113 -47t47 -113t-47 -113t-113 -47t-112.5 47t-46.5 113z" />
<glyph unicode="&#x2c6;" horiz-adv-x="454" d="M-188 1337q0 63 23 95.5t85 60.5l180 82q3 1 28 12l37.5 16.5t31.5 11t30 5.5t30 -5.5t31.5 -11l37.5 -16.5t28 -12l181 -82q62 -28 85 -60.5t23 -95.5q0 -51 -33 -87t-75 -36q-39 0 -111 31l-197 90l-196 -90q-72 -31 -111 -31q-42 0 -75 36t-33 87z" />
<glyph unicode="&#x2dc;" horiz-adv-x="454" d="M-209 1346q0 84 62 153.5t145 69.5q66 0 139.5 -24t133.5 -48t94 -24q27 0 51.5 15t39.5 33t38.5 33t50.5 15q55 0 87 -38t32 -93q0 -84 -62 -154t-145 -70q-52 0 -110 15t-99.5 33.5t-85.5 33.5t-72 15q-27 0 -51.5 -15t-39.5 -33.5t-38.5 -33.5t-50.5 -15 q-55 0 -87 38.5t-32 93.5z" />
<glyph unicode="&#x2000;" horiz-adv-x="980" />
<glyph unicode="&#x2001;" horiz-adv-x="1960" />
<glyph unicode="&#x2002;" horiz-adv-x="980" />
<glyph unicode="&#x2003;" horiz-adv-x="1960" />
<glyph unicode="&#x2004;" horiz-adv-x="653" />
<glyph unicode="&#x2005;" horiz-adv-x="490" />
<glyph unicode="&#x2006;" horiz-adv-x="326" />
<glyph unicode="&#x2007;" horiz-adv-x="326" />
<glyph unicode="&#x2008;" horiz-adv-x="245" />
<glyph unicode="&#x2009;" horiz-adv-x="392" />
<glyph unicode="&#x200a;" horiz-adv-x="108" />
<glyph unicode="&#x2010;" horiz-adv-x="872" d="M59 571q0 62 36.5 99t99.5 37h483q63 0 99 -37t36 -99t-36 -98.5t-99 -36.5h-483q-63 0 -99.5 36.5t-36.5 98.5z" />
<glyph unicode="&#x2011;" horiz-adv-x="872" d="M59 571q0 62 36.5 99t99.5 37h483q63 0 99 -37t36 -99t-36 -98.5t-99 -36.5h-483q-63 0 -99.5 36.5t-36.5 98.5z" />
<glyph unicode="&#x2012;" horiz-adv-x="872" d="M59 571q0 62 36.5 99t99.5 37h483q63 0 99 -37t36 -99t-36 -98.5t-99 -36.5h-483q-63 0 -99.5 36.5t-36.5 98.5z" />
<glyph unicode="&#x2013;" horiz-adv-x="1024" d="M0 571q0 62 36 99t99 37h754q63 0 99 -37t36 -99t-36 -98.5t-99 -36.5h-754q-63 0 -99 36.5t-36 98.5z" />
<glyph unicode="&#x2014;" horiz-adv-x="2048" d="M-135 571q0 62 36 99t99 37h2048q63 0 99 -37t36 -99t-36 -98.5t-99 -36.5h-2048q-63 0 -99 36.5t-36 98.5z" />
<glyph unicode="&#x2018;" horiz-adv-x="530" d="M2 977q0 39 31 98l168 301q53 94 145 94q68 0 112 -38.5t44 -100.5q0 -39 -31 -98l-168 -301q-53 -94 -145 -94q-68 0 -112 38.5t-44 100.5z" />
<glyph unicode="&#x2019;" horiz-adv-x="530" d="M2 977q0 39 31 98l168 301q53 94 145 94q68 0 112 -38.5t44 -100.5q0 -39 -31 -98l-168 -301q-53 -94 -145 -94q-68 0 -112 38.5t-44 100.5z" />
<glyph unicode="&#x201a;" horiz-adv-x="530" d="M2 -170q0 39 31 98l168 301q54 95 145 95q68 0 112 -39t44 -101q0 -39 -31 -98l-168 -301q-53 -94 -145 -94q-68 0 -112 38.5t-44 100.5z" />
<glyph unicode="&#x201c;" horiz-adv-x="985" d="M2 977q0 39 31 98l168 301q53 94 145 94q68 0 112 -38.5t44 -100.5q0 -39 -31 -98l-168 -301q-53 -94 -145 -94q-68 0 -112 38.5t-44 100.5zM457 977q0 40 30 98l168 301q53 94 146 94q68 0 111.5 -38.5t43.5 -100.5q0 -41 -30 -98l-168 -301q-53 -94 -146 -94 q-68 0 -111.5 38.5t-43.5 100.5z" />
<glyph unicode="&#x201d;" horiz-adv-x="985" d="M2 977q0 39 31 98l168 301q53 94 145 94q68 0 112 -38.5t44 -100.5q0 -39 -31 -98l-168 -301q-53 -94 -145 -94q-68 0 -112 38.5t-44 100.5zM457 977q0 40 30 98l168 301q53 94 146 94q68 0 111.5 -38.5t43.5 -100.5q0 -41 -30 -98l-168 -301q-53 -94 -146 -94 q-68 0 -111.5 38.5t-43.5 100.5z" />
<glyph unicode="&#x201e;" horiz-adv-x="985" d="M2 -170q0 39 31 98l168 301q54 95 145 95q68 0 112 -39t44 -101q0 -39 -31 -98l-168 -301q-53 -94 -145 -94q-68 0 -112 38.5t-44 100.5zM457 -170q0 40 30 98l168 301q54 95 146 95q68 0 111.5 -38.5t43.5 -101.5q0 -40 -30 -98l-168 -301q-53 -94 -146 -94 q-68 0 -111.5 38.5t-43.5 100.5z" />
<glyph unicode="&#x2022;" horiz-adv-x="1024" d="M147 729q0 151 107 258t258 107t258 -107t107 -258t-107 -257.5t-258 -106.5t-258 106.5t-107 257.5z" />
<glyph unicode="&#x2026;" horiz-adv-x="2048" d="M164 145q0 72 53 125.5t125 53.5t125 -53.5t53 -125.5q0 -73 -53 -125.5t-125 -52.5t-125 52.5t-53 125.5zM846 145q0 72 53 125.5t125 53.5t125 -53.5t53 -125.5q0 -73 -53 -125.5t-125 -52.5t-125 52.5t-53 125.5zM1528 145q0 72 53 125.5t125 53.5t125 -53.5 t53 -125.5q0 -73 -53 -125.5t-125 -52.5t-125 52.5t-53 125.5z" />
<glyph unicode="&#x202f;" horiz-adv-x="392" />
<glyph unicode="&#x2039;" horiz-adv-x="757" d="M147 571q0 107 82 168l172 125q58 43 105 43q46 0 75 -32t29 -76q0 -71 -55 -109l-182 -119l182 -120q55 -35 55 -107q0 -44 -29 -76t-75 -32q-47 0 -105 43l-172 124q-82 59 -82 168z" />
<glyph unicode="&#x203a;" horiz-adv-x="757" d="M147 344q0 70 56 109l182 118l-182 121q-56 36 -56 107q0 44 29.5 76t75.5 32t104 -43l172 -125q82 -59 82 -168q0 -107 -82 -168l-172 -124q-58 -43 -104 -43t-75.5 32t-29.5 76z" />
<glyph unicode="&#x205f;" horiz-adv-x="490" />
<glyph unicode="&#x2122;" horiz-adv-x="2048" d="M84 1366q0 36 24.5 64t75.5 28h506q51 0 74.5 -28t23.5 -64t-23.5 -64t-74.5 -28h-131v-545q0 -38 -13.5 -66t-34.5 -41.5t-39.5 -19.5t-35.5 -6t-35.5 6t-39.5 19.5t-34.5 41.5t-13.5 66v545h-129q-51 0 -75.5 28t-24.5 64zM920 729v557q0 52 16 90t43 57.5t54.5 28 t56.5 8.5q160 0 219 -157l133 -342l133 342q59 157 219 157q29 0 56.5 -8.5t54.5 -28t43 -57.5t16 -90v-557q0 -38 -13.5 -66t-34.5 -41.5t-39.5 -19.5t-35.5 -6t-35.5 6t-39.5 19.5t-34.5 41.5t-13.5 66v381h-4l-149 -405q-38 -109 -123 -109t-123 109l-150 405h-4v-381 q0 -38 -13.5 -66t-34.5 -41.5t-39.5 -19.5t-35.5 -6t-35.5 6t-39 19.5t-34 41.5t-13.5 66z" />
<glyph unicode="&#xe000;" horiz-adv-x="1105" d="M0 0v1106h1106v-1106h-1106z" />
<glyph unicode="&#xfb01;" d="M-49 942q0 74 44.5 111t123.5 37h37v143q0 148 92.5 246t238.5 98q41 0 75.5 -6.5t67 -21.5t51.5 -45.5t19 -73.5q0 -148 -151 -148q-39 0 -56.5 -22.5t-17.5 -81.5v-88h88q79 0 123.5 -37t44.5 -111t-44.5 -110.5t-123.5 -36.5h-88v-641q0 -70 -45 -118t-115 -48 q-69 0 -114 48t-45 118v641h-37q-79 0 -123.5 36.5t-44.5 110.5zM721 1386q0 79 56 135t134 56t134.5 -56t56.5 -135t-56.5 -134.5t-134.5 -55.5t-134 55.5t-56 134.5zM752 154v782q0 70 45 118t114 48q70 0 115 -48t45 -118v-782q0 -70 -45 -118t-115 -48q-69 0 -114 48 t-45 118z" />
<glyph unicode="&#xfb02;" d="M-49 942q0 74 44.5 111t123.5 37h37v143q0 148 92.5 246t238.5 98q41 0 75.5 -6.5t67 -21.5t51.5 -45.5t19 -73.5q0 -148 -151 -148q-39 0 -56.5 -22.5t-17.5 -81.5v-88h88q79 0 123.5 -37t44.5 -111t-44.5 -110.5t-123.5 -36.5h-88v-641q0 -70 -45 -118t-115 -48 q-69 0 -114 48t-45 118v641h-37q-79 0 -123.5 36.5t-44.5 110.5zM752 154v1257q0 70 45 118t114 48q70 0 115 -48t45 -118v-1257q0 -70 -45 -118t-115 -48q-69 0 -114 48t-45 118z" />
</font>
</defs>
</svg>
